<?xml version="1.0" standalone="no"?>
<!DOCTYPE svg PUBLIC "-//W3C//DTD SVG 20010904//EN"
 "http://www.w3.org/TR/2001/REC-SVG-20010904/DTD/svg10.dtd">
<svg version="1.0" xmlns="http://www.w3.org/2000/svg"
 width="512.000000pt" height="512.000000pt" viewBox="0 0 512.000000 512.000000"
 preserveAspectRatio="xMidYMid meet">

<g transform="translate(0.000000,512.000000) scale(0.100000,-0.100000)"
fill="#000000" stroke="none">
<path d="M2315 5109 c-800 -83 -1501 -518 -1927 -1196 -487 -774 -516 -1777
-75 -2578 200 -364 487 -676 841 -913 238 -159 600 -311 876 -366 214 -43 295
-51 530 -51 236 0 333 10 532 51 880 184 1615 842 1898 1702 92 278 125 491
125 802 0 301 -32 513 -116 775 -124 390 -330 728 -622 1024 -399 404 -893
653 -1462 737 -123 18 -478 26 -600 13z m676 -712 c25 -79 29 -200 10 -287
-22 -93 -93 -228 -174 -325 -41 -49 -143 -153 -228 -230 -337 -308 -392 -386
-391 -561 1 -179 74 -337 240 -517 30 -32 51 -61 49 -64 -10 -10 -193 123
-270 196 -150 143 -220 285 -220 446 0 196 91 325 433 610 295 246 412 381
465 540 27 79 35 190 20 280 l-6 40 25 -29 c13 -16 35 -61 47 -99z m289 -671
c0 -2 -37 -25 -81 -51 -158 -93 -315 -238 -372 -343 -15 -27 -34 -77 -43 -112
-26 -104 -8 -172 95 -354 33 -59 68 -128 76 -154 32 -93 -4 -200 -101 -302
-57 -60 -138 -123 -147 -114 -3 3 10 35 29 70 60 115 46 206 -56 374 -117 193
-141 268 -121 382 13 78 67 187 123 252 96 111 283 234 477 312 102 42 121 48
121 40z m495 -1302 c64 -22 146 -103 163 -160 20 -67 15 -142 -13 -202 -45
-97 -165 -202 -320 -280 -81 -40 -233 -93 -239 -83 -3 5 32 31 77 59 207 128
300 238 328 387 26 140 -75 264 -213 265 -59 0 -62 15 -5 29 56 13 160 6 222
-15z m-1705 -31 c-181 -39 -290 -85 -290 -121 0 -50 254 -100 605 -118 220
-11 634 24 841 71 l70 16 47 -26 c26 -15 49 -30 52 -35 12 -19 -206 -77 -395
-104 -375 -55 -869 -44 -1189 25 -315 68 -367 157 -138 234 94 31 330 74 407
73 l55 0 -65 -15z m-119 -459 c-48 -34 -7 -83 93 -109 119 -30 232 -40 456
-39 229 0 343 10 507 45 l93 20 70 -41 c38 -22 70 -43 70 -45 0 -11 -200 -66
-310 -84 -456 -76 -1074 -20 -1217 112 -13 11 -23 28 -23 37 0 18 32 51 68 70
29 14 205 60 211 54 3 -3 -5 -12 -18 -20z m126 -441 c-2 -20 5 -31 28 -44 86
-51 464 -68 684 -30 l114 19 79 -45 c43 -25 77 -51 75 -56 -5 -16 -124 -57
-227 -78 -126 -26 -417 -36 -559 -20 -267 31 -435 108 -401 183 15 31 69 63
141 82 71 19 68 20 66 -11z m-362 -103 c-3 -5 -13 -10 -21 -10 -32 0 -169 -65
-205 -97 -71 -64 -56 -112 46 -158 114 -51 368 -102 624 -126 170 -15 656 -6
831 16 339 42 591 123 638 206 22 38 39 37 59 -7 17 -34 17 -37 -2 -72 -23
-43 -92 -92 -173 -122 -285 -107 -842 -167 -1302 -141 -533 31 -911 111 -1016
216 -52 52 -22 120 76 178 103 60 469 156 445 117z m2126 -378 c-129 -253
-1047 -407 -1819 -306 -140 18 -306 51 -347 69 -29 13 -29 13 -5 14 14 1 53
-4 87 -9 227 -37 706 -51 998 -30 508 38 866 134 1057 285 50 40 58 33 29 -23z"/>
</g>
</svg>
