<?xml version="1.0" encoding="UTF-8"?>
<svg version="1.1" xmlns="http://www.w3.org/2000/svg" width="512" height="512">
<path d="M0 0 C168.96 0 337.92 0 512 0 C512 168.96 512 337.92 512 512 C343.04 512 174.08 512 0 512 C0 343.04 0 174.08 0 0 Z " fill="#000000" transform="translate(0,0)"/>
<path d="M0 0 C1.13287104 1.09608952 2.24169626 2.21819907 3.3125 3.375 C7.12261382 6.94992161 11.68578269 6.54531859 16.61254883 6.68481445 C45.67146314 7.62412602 70.89635449 28.84044834 91 48 C91.83015625 48.76570313 92.6603125 49.53140625 93.515625 50.3203125 C111.04106841 66.99775059 123.09273892 87.74104049 132.29345703 109.87524414 C136.0801567 118.96760556 140.15138322 127.88246171 144.4375 136.75 C144.73073151 137.36146881 145.02396301 137.97293762 145.32608032 138.60293579 C147.16406179 142.43042943 149.05189873 146.22739109 151 150 C151.42112061 150.81654053 151.84224121 151.63308105 152.27612305 152.47436523 C155.03882756 157.37891021 157.59566988 159.37901981 162.9375 161.5625 C164.27931501 162.13907015 165.62044637 162.71723358 166.9609375 163.296875 C167.63608398 163.57982422 168.31123047 163.86277344 169.00683594 164.15429688 C180.01735257 168.82607904 189.55717947 174.77180136 199 182 C200.36125 183.04027344 200.36125 183.04027344 201.75 184.1015625 C218.76288344 197.44604294 218.76288344 197.44604294 224 206 C224 206.66 224 207.32 224 208 C217.31517979 210.83255094 210.78416418 212.04551204 203.625 213.125 C201.47092232 213.45815723 199.31725141 213.79395873 197.1640625 214.1328125 C196.21998535 214.27605957 195.2759082 214.41930664 194.30322266 214.56689453 C191.98310305 214.89419159 191.98310305 214.89419159 190 216 C187.6670134 216.04022391 185.33293334 216.04320247 183 216 C185.10411239 221.25651016 187.79784715 223.65986831 192.5625 226.4375 C193.82900469 227.21471416 195.09462534 227.99337066 196.359375 228.7734375 C196.98005859 229.15081055 197.60074219 229.52818359 198.24023438 229.91699219 C208.39844132 236.16863009 217.64090528 243.56526318 225 253 C225 253.66 225 254.32 225 255 C225.60328125 255.24492187 226.2065625 255.48984375 226.828125 255.7421875 C229.38964779 257.22565933 230.27500992 258.58473931 231.75 261.125 C232.17796875 261.84945313 232.6059375 262.57390625 233.046875 263.3203125 C233.36140625 263.87460937 233.6759375 264.42890625 234 265 C230.12115363 265 229.10683767 263.37990274 226.3203125 260.90234375 C218.87350762 254.79696668 210.44168426 250.07722494 201.8125 245.875 C187.62625894 238.96037064 173.93612263 230.81924356 167 216 C166.62391932 214.67808767 166.27427533 213.34672266 166 212 C171.09492669 207.59527274 177.62057406 206.6384318 184 205 C185.25876953 204.65388672 185.25876953 204.65388672 186.54296875 204.30078125 C194.56237169 202.35459224 202.80695787 202.82891559 211 203 C207.1706776 198.90505986 203.08932099 195.7983359 198.4375 192.6875 C196.99339963 191.71758184 195.54938977 190.74752889 194.10546875 189.77734375 C193.40083496 189.30538574 192.69620117 188.83342773 191.97021484 188.34716797 C190.28002914 187.19147469 188.62961548 185.9779882 186.98828125 184.75390625 C178.14873353 178.28502183 168.30890903 175.3333653 158 172 C149.03906877 169.06964808 144.74402913 166.17820468 140.2746582 157.74414062 C139.63351952 156.46685022 138.99664553 155.18741325 138.36328125 153.90625 C138.01686081 153.20900818 137.67044037 152.51176636 137.31352234 151.793396 C133.53765852 144.14230212 129.95659636 136.40256437 126.40795898 128.64404297 C125.30621539 126.23626546 124.19929105 123.83091828 123.09179688 121.42578125 C120.03426386 114.76746879 117.00884652 108.11569419 114.24609375 101.328125 C112.39523979 96.81946498 110.31858365 92.63873019 107.75 88.5 C107.36650391 87.87327393 106.98300781 87.24654785 106.58789062 86.60083008 C100.36543799 76.59592816 93.10440126 67.53697527 85 59 C84.5364209 58.50387207 84.0728418 58.00774414 83.59521484 57.49658203 C64.96959663 37.66222164 40.58218866 19.70875581 12.6875 18.125 C4.70637103 17.65262822 -0.13478795 16.7023315 -6.28125 11.234375 C-9.72609411 8.40326748 -13.37852548 6.56347437 -17.375 4.625 C-18.0541748 4.29161621 -18.73334961 3.95823242 -19.43310547 3.61474609 C-27.03779618 -0.15437195 -27.03779618 -0.15437195 -35.3125 -1.125 C-36.19550781 -1.10695313 -37.07851562 -1.08890625 -37.98828125 -1.0703125 C-38.98408203 -1.03550781 -38.98408203 -1.03550781 -40 -1 C-41.02416384 8.42230731 -35.82544938 15.14016826 -30.1875 22.25 C-20.64210929 34.4259269 -15.33076159 46.92026336 -10.58789062 61.51953125 C-7.40622329 71.25720379 -4.27120491 80.03615527 2.8125 87.625 C5.57755258 90.93475409 6.89945411 92.5619072 7.875 96.8125 C7.25494148 101.83497398 5.12650278 106.66028092 3.2890625 111.33984375 C-2.87066087 128.82972494 -2.7937729 151.06722765 5 168 C7.46470365 173.10383247 9.67711515 176.56668121 15 179 C14.97550781 178.02675781 14.95101562 177.05351562 14.92578125 176.05078125 C14.9435083 161.94359396 18.2954633 148.91231907 27.66796875 138.1796875 C29 137 29 137 31 137 C31.3403125 137.8971875 31.680625 138.794375 32.03125 139.71875 C35.78857213 149.45873268 40.12751341 158.77027828 45 168 C45.34401855 168.65613281 45.68803711 169.31226563 46.04248047 169.98828125 C54.03619357 185.10366603 63.21686602 199.48952316 76 211 C73 211 73 211 71.30859375 209.53125 C70.69113281 208.8609375 70.07367188 208.190625 69.4375 207.5 C66.5290021 204.46965246 63.58306682 201.8048145 60.25 199.25 C47.29030699 189.04598902 37.50602771 177.32064589 31 162 C31 161.34 31 160.68 31 160 C30.34 160 29.68 160 29 160 C28.96261719 160.96679688 28.92523438 161.93359375 28.88671875 162.9296875 C27.96267795 181.22931897 27.96267795 181.22931897 22.9375 187.625 C18.52112627 189.69223877 14.77273009 190.05655857 10 189 C0.35996443 183.67842834 -3.86461487 173.27862125 -6.8125 163.25 C-12.68878573 142.79385169 -10.19227911 123.79987172 -4.64501953 103.55078125 C-3.8408648 100.37068712 -3.36143528 97.25749261 -3 94 C-3.99 93.67 -4.98 93.34 -6 93 C-16.42615438 80.68041663 -22.31841086 61.84288524 -26.56640625 46.53515625 C-27.77950017 42.34038941 -29.52653433 39.17344237 -32.125 35.625 C-32.51389404 35.08319092 -32.90278809 34.54138184 -33.3034668 33.9831543 C-35.2954889 31.22727711 -37.35947235 28.53847648 -39.44921875 25.85546875 C-44.92184982 18.8088909 -49.85007035 12.02972101 -50.5625 2.875 C-49.84737984 -2.05138331 -48.33492467 -5.30867116 -45 -9 C-30.94892553 -17.99268766 -12.32803457 -7.81233389 0 0 Z " fill="#F7F7F7" transform="translate(164,129)"/>
<path d="M0 0 C3.9789413 -0.55705178 7.51696027 -1.03363375 10.93359375 1.34765625 C13.5861311 4.24191163 14.87402223 6.28612599 15.5625 10.1875 C14.95513072 13.22434639 14.08378426 14.74256705 12 17 C9 16 9 16 8.0078125 14.36328125 C7.57082031 13.34814453 7.57082031 13.34814453 7.125 12.3125 C5.77212718 9.39176294 4.36936344 7.04969546 2.25 4.625 C0 2 0 2 0 0 Z " fill="#F4F4F4" transform="translate(171,165)"/>
</svg>
