<?xml version="1.0" encoding="UTF-8"?>
<svg version="1.1" xmlns="http://www.w3.org/2000/svg" width="512" height="512">
<path d="M0 0 C12.04135491 4.86285487 21.14121404 25.71754793 28 36.1875 C29.26407595 38.11279238 30.52839687 40.03792395 31.79296875 41.96289062 C34.8648066 46.64007633 37.93361223 51.31923962 41 56 C41.00364563 55.43703217 41.00729126 54.87406433 41.01104736 54.29403687 C41.05294083 48.42103166 41.12233399 42.54880298 41.20751953 36.67626953 C41.2357006 34.48624447 41.25692934 32.29611823 41.27099609 30.10595703 C41.29246477 26.95292473 41.33913675 23.80110515 41.390625 20.6484375 C41.39185364 19.67321136 41.39308228 18.69798523 41.39434814 17.69320679 C41.51720603 11.9579771 42.13536313 8.53012413 46 4 C49.81930172 0.37166337 52.88279006 -0.31000458 58 -0.5 C63.11720994 -0.31000458 66.18069828 0.37166337 70 4 C74.57407793 9.36722656 74.57323692 13.77110072 74.51757812 20.5 C74.5245874 21.54462402 74.53159668 22.58924805 74.53881836 23.66552734 C74.55639022 27.11062381 74.54477782 30.55489551 74.53125 34 C74.53394513 36.3984391 74.53782772 38.79687714 74.54284668 41.1953125 C74.54874066 46.21885595 74.54018159 51.24211467 74.52148438 56.265625 C74.49869537 62.70189072 74.51181892 69.13748922 74.53577423 75.57373047 C74.55023461 80.52544168 74.545625 85.47699495 74.53526306 90.42871094 C74.53259647 92.80175862 74.53586314 95.17482068 74.54518127 97.54785156 C74.55535031 100.86562028 74.53983934 104.18231145 74.51757812 107.5 C74.52567505 108.47888184 74.53377197 109.45776367 74.54211426 110.46630859 C74.47140556 116.16037885 73.83517225 119.49980593 70 124 C66.18069828 127.62833663 63.11720994 128.31000458 58 128.5 C52.77430852 128.27475468 49.85160745 127.76407092 46 124 C37.9337927 113.83337915 31.10290477 102.65509998 24 91.8125 C22.73592405 89.88720762 21.47160313 87.96207605 20.20703125 86.03710938 C17.1351934 81.35992367 14.06638777 76.68076038 11 72 C10.99635437 72.56296783 10.99270874 73.12593567 10.98895264 73.70596313 C10.94705917 79.57896834 10.87766601 85.45119702 10.79248047 91.32373047 C10.7642994 93.51375553 10.74307066 95.70388177 10.72900391 97.89404297 C10.70753523 101.04707527 10.66086325 104.19889485 10.609375 107.3515625 C10.60753204 108.8144017 10.60753204 108.8144017 10.60565186 110.30679321 C10.48279397 116.0420229 9.86463687 119.46987587 6 124 C2.18069828 127.62833663 -0.88279006 128.31000458 -6 128.5 C-11.11720994 128.31000458 -14.18069828 127.62833663 -18 124 C-22.57407793 118.63277344 -22.57323692 114.22889928 -22.51757812 107.5 C-22.5245874 106.45537598 -22.53159668 105.41075195 -22.53881836 104.33447266 C-22.55639022 100.88937619 -22.54477782 97.44510449 -22.53125 94 C-22.53394513 91.6015609 -22.53782772 89.20312286 -22.54284668 86.8046875 C-22.54874066 81.78114405 -22.54018159 76.75788533 -22.52148438 71.734375 C-22.49869537 65.29810928 -22.51181892 58.86251078 -22.53577423 52.42626953 C-22.55023461 47.47455832 -22.545625 42.52300505 -22.53526306 37.57128906 C-22.53259647 35.19824138 -22.53586314 32.82517932 -22.54518127 30.45214844 C-22.55535031 27.13437972 -22.53983934 23.81768855 -22.51757812 20.5 C-22.52567505 19.52111816 -22.53377197 18.54223633 -22.54211426 17.53369141 C-22.47140556 11.83962115 -21.83517225 8.50019407 -18 4 C-12.70685929 -1.02848367 -6.91189479 -0.88785389 0 0 Z " fill="#000000" transform="translate(166,192)"/>
<path d="M0 0 C1.30904297 -0.0038269 2.61808594 -0.00765381 3.96679688 -0.01159668 C6.73066196 -0.01747605 9.49400802 -0.00898041 12.2578125 0.00976562 C15.78862831 0.03255558 19.31822777 0.01942391 22.84899902 -0.00452423 C26.23276177 -0.02250956 29.61620276 -0.00989232 33 0 C34.89395508 -0.01214539 34.89395508 -0.01214539 36.82617188 -0.02453613 C47.68018545 0.09130219 47.68018545 0.09130219 52.5 4.53125 C56.12833663 8.35055172 56.81000458 11.41404006 57 16.53125 C56.81000458 21.64845994 56.12833663 24.71194828 52.5 28.53125 C47.44357099 32.68954141 43.86258981 33.08340211 37.6015625 32.921875 C36.76660248 32.91621521 35.93164246 32.91055542 35.07138062 32.90472412 C32.42198734 32.88245223 29.77397984 32.83227523 27.125 32.78125 C25.32163421 32.76117302 23.51824708 32.74292435 21.71484375 32.7265625 C17.30936731 32.68261786 12.90491806 32.61365601 8.5 32.53125 C8.5 37.81125 8.5 43.09125 8.5 48.53125 C9.61971191 48.51030273 10.73942383 48.48935547 11.89306641 48.46777344 C16.06383377 48.39514574 20.23454568 48.34936789 24.40576172 48.31152344 C26.20794081 48.29145967 28.01005521 48.26420187 29.81201172 48.22949219 C32.40869136 48.18074171 35.00450729 48.15822918 37.6015625 48.140625 C38.80191635 48.10965729 38.80191635 48.10965729 40.02651978 48.07806396 C45.33916147 48.07595295 48.26422625 49.04784669 52.5 52.53125 C56.12833663 56.35055172 56.81000458 59.41404006 57 64.53125 C56.81000458 69.64845994 56.12833663 72.71194828 52.5 76.53125 C47.44357099 80.68954141 43.86258981 81.08340211 37.6015625 80.921875 C36.76660248 80.91621521 35.93164246 80.91055542 35.07138062 80.90472412 C32.42198734 80.88245223 29.77397984 80.83227523 27.125 80.78125 C25.32163421 80.76117302 23.51824708 80.74292435 21.71484375 80.7265625 C17.30936731 80.68261786 12.90491806 80.61365601 8.5 80.53125 C8.5 85.81125 8.5 91.09125 8.5 96.53125 C10.17956787 96.4998291 10.17956787 96.4998291 11.89306641 96.46777344 C16.06383377 96.39514574 20.23454568 96.34936789 24.40576172 96.31152344 C26.20794081 96.29145967 28.01005521 96.26420187 29.81201172 96.22949219 C32.40869136 96.18074171 35.00450729 96.15822918 37.6015625 96.140625 C38.80191635 96.10965729 38.80191635 96.10965729 40.02651978 96.07806396 C45.33916147 96.07595295 48.26422625 97.04784669 52.5 100.53125 C56.12833663 104.35055172 56.81000458 107.41404006 57 112.53125 C56.81000458 117.64845994 56.12833663 120.71194828 52.5 124.53125 C46.74545317 129.83226051 40.50898761 129.11065296 33 129.0625 C31.69095703 129.0663269 30.38191406 129.07015381 29.03320312 129.07409668 C26.26933804 129.07997605 23.50599198 129.07148041 20.7421875 129.05273438 C17.21137169 129.02994442 13.68177223 129.04307609 10.15100098 129.06702423 C6.76723823 129.08500956 3.38379724 129.07239232 0 129.0625 C-1.26263672 129.07059692 -2.52527344 129.07869385 -3.82617188 129.08703613 C-14.94070872 128.96841741 -14.94070872 128.96841741 -19.5 124.53125 C-24.0703159 119.15807993 -24.07326257 114.76324989 -24.01757812 108.03125 C-24.0245874 106.98662598 -24.03159668 105.94200195 -24.03881836 104.86572266 C-24.05639022 101.42062619 -24.04477782 97.97635449 -24.03125 94.53125 C-24.03394513 92.1328109 -24.03782772 89.73437286 -24.04284668 87.3359375 C-24.04874066 82.31239405 -24.04018159 77.28913533 -24.02148438 72.265625 C-23.99869537 65.82935928 -24.01181892 59.39376078 -24.03577423 52.95751953 C-24.05023461 48.00580832 -24.045625 43.05425505 -24.03526306 38.10253906 C-24.03259647 35.72949138 -24.03586314 33.35642932 -24.04518127 30.98339844 C-24.05535031 27.66562972 -24.03983934 24.34893855 -24.01757812 21.03125 C-24.02567505 20.05236816 -24.03377197 19.07348633 -24.04211426 18.06494141 C-23.97138694 12.36937136 -23.33143251 9.03573918 -19.5 4.53125 C-13.93007704 -0.88947859 -7.30568987 -0.04684927 0 0 Z " fill="#000000" transform="translate(279.5,191.46875)"/>
<path d="M0 0 C0.73250977 -0.00700928 1.46501953 -0.01401855 2.21972656 -0.02124023 C4.62604382 -0.03875584 7.03117209 -0.02722142 9.4375 -0.01367188 C11.11849186 -0.01636866 12.79948221 -0.02025264 14.48046875 -0.02526855 C17.99754743 -0.03115485 21.5142188 -0.02262896 25.03125 -0.00390625 C29.53052189 0.01888312 34.02883927 0.00575532 38.52807617 -0.01819611 C41.99746847 -0.03267779 45.46663594 -0.02803731 48.93603516 -0.01768494 C50.59456496 -0.01502418 52.25311544 -0.01826444 53.91162109 -0.02760315 C56.23329421 -0.03780834 58.55344011 -0.02221466 60.875 0 C62.19371094 0.00318237 63.51242187 0.00636475 64.87109375 0.00964355 C70.16529367 0.76365389 73.1949097 3.20958834 76.8125 7.01757812 C79.21053575 12.18257821 79.19131535 16.91780692 78.4375 22.51757812 C76.28536944 27.15293625 73.19956608 30.53092031 68.4375 32.51757812 C64.63098841 32.99603599 60.89111202 32.89602188 57.0625 32.76757812 C55.52916016 32.74050781 55.52916016 32.74050781 53.96484375 32.71289062 C51.45475251 32.66597303 48.94662236 32.60034542 46.4375 32.51757812 C46.44638245 33.58166901 46.45526489 34.64575989 46.4644165 35.74209595 C46.54554948 45.77657758 46.60548808 55.81099254 46.64474869 65.84572792 C46.66561166 71.00455027 46.69390597 76.16310754 46.73925781 81.32177734 C46.78276124 86.30143205 46.80664681 91.28083199 46.81700897 96.26066208 C46.82439224 98.15926498 46.83881014 100.05785415 46.86042023 101.95634842 C46.88951408 104.61850215 46.89345352 107.27960706 46.89160156 109.94189453 C46.90598267 110.72448639 46.92036377 111.50707825 46.93518066 112.31338501 C46.89617869 117.50450542 45.81464768 120.37133817 42.4375 124.51757812 C38.61819828 128.14591476 35.55470994 128.82758271 30.4375 129.01757812 C25.32029006 128.82758271 22.25680172 128.14591476 18.4375 124.51757812 C14.38249954 119.53911507 13.87040106 116.09099327 13.98339844 109.94189453 C13.98281433 109.1022113 13.98223022 108.26252808 13.98162842 107.3973999 C13.98440261 104.63755133 14.0154625 101.8787992 14.046875 99.11914062 C14.05433977 97.19958079 14.06003159 95.28001331 14.06402588 93.36044312 C14.07926362 88.3198322 14.11852946 83.2796858 14.1628418 78.23925781 C14.20383461 73.09120975 14.22204546 67.94308628 14.2421875 62.79492188 C14.28502546 52.7022704 14.35325431 42.60996296 14.4375 32.51757812 C13.80247559 32.53852539 13.16745117 32.55947266 12.51318359 32.58105469 C9.61311924 32.66462393 6.71330884 32.71636586 3.8125 32.76757812 C2.81347656 32.80109375 1.81445312 32.83460938 0.78515625 32.86914062 C-5.37479285 32.95072935 -8.87877786 32.63084693 -13.5625 28.51757812 C-17.19083663 24.6982764 -17.87250458 21.63478806 -18.0625 16.51757812 C-17.87250458 11.40036819 -17.19083663 8.33687985 -13.5625 4.51757812 C-8.93118623 0.84147282 -5.88011243 0.01419015 0 0 Z " fill="#000000" transform="translate(369.5625,191.482421875)"/>
<path d="M0 0 C8.34468007 4.97590182 13.53387008 11.86345977 16.109375 21.2578125 C17.10789012 32.35758522 16.45884702 41.9922991 9.359375 51.0703125 C3.70168013 57.1280464 -3.34488592 60.84888618 -11.625 61.59375 C-22.35447774 61.83515993 -31.19802606 60.58332943 -39.359375 52.9609375 C-46.75303791 44.73737365 -48.47252567 36.02335615 -48.203125 25.24609375 C-47.72879865 16.86039919 -44.11592977 9.8548755 -37.890625 4.2578125 C-27.15195714 -3.81766573 -12.32399863 -5.91386512 0 0 Z " fill="#000000" transform="translate(111.890625,258.7421875)"/>
</svg>
