<?xml version="1.0" standalone="no"?>
<!DOCTYPE svg PUBLIC "-//W3C//DTD SVG 20010904//EN"
 "http://www.w3.org/TR/2001/REC-SVG-20010904/DTD/svg10.dtd">
<svg version="1.0" xmlns="http://www.w3.org/2000/svg"
 width="512.000000pt" height="512.000000pt" viewBox="0 0 512.000000 512.000000"
 preserveAspectRatio="xMidYMid meet">

<g transform="translate(0.000000,512.000000) scale(0.100000,-0.100000)"
fill="#000000" stroke="none">
<path d="M2453 5105 c-69 -19 -92 -31 -383 -200 -135 -78 -553 -319 -930 -535
-740 -426 -760 -440 -812 -550 -14 -30 -31 -82 -37 -114 -15 -83 -15 -2209 0
-2292 16 -91 61 -175 123 -231 35 -32 212 -139 522 -317 258 -149 685 -394
949 -546 264 -152 503 -285 530 -296 69 -26 220 -26 290 0 92 35 1944 1107
2000 1158 28 25 63 68 78 95 59 109 57 66 57 1274 0 706 -4 1126 -10 1160 -6
30 -22 79 -37 109 -55 115 -61 119 -1083 706 -520 300 -970 554 -1000 565 -72
27 -188 34 -257 14z m362 -1055 c212 -36 410 -116 600 -243 117 -78 309 -271
394 -395 35 -51 61 -95 60 -96 -2 -2 -150 -87 -329 -190 l-325 -187 -20 27
c-103 139 -179 206 -310 269 -126 61 -218 79 -364 72 -131 -6 -201 -25 -308
-81 -180 -95 -312 -254 -375 -451 -29 -89 -35 -271 -14 -371 35 -159 137 -326
261 -427 76 -61 219 -131 312 -151 297 -66 614 60 782 309 19 28 35 51 36 53
3 4 628 -358 644 -373 22 -22 -93 -180 -234 -320 -310 -311 -681 -457 -1120
-442 -402 14 -724 155 -1010 442 -287 286 -428 608 -442 1010 -9 260 34 475
138 695 83 173 154 275 288 413 176 181 376 307 610 384 226 74 491 93 726 53z
m1235 -1190 l0 -60 90 0 90 0 0 60 0 60 75 0 75 0 0 -60 0 -60 60 0 60 0 0
-75 0 -75 -60 0 -60 0 0 -95 0 -95 60 0 60 0 0 -75 0 -75 -60 0 -60 0 0 -60 0
-60 -75 0 -75 0 0 60 0 60 -90 0 -90 0 0 -60 0 -60 -75 0 -75 0 0 60 0 60 -60
0 -60 0 0 75 0 75 60 0 60 0 0 95 0 95 -60 0 -60 0 0 75 0 75 60 0 60 0 0 60
0 60 75 0 75 0 0 -60z"/>
<path d="M4050 2555 l0 -95 90 0 90 0 0 95 0 95 -90 0 -90 0 0 -95z"/>
</g>
</svg>
