<?xml version="1.0" standalone="no"?>
<!DOCTYPE svg PUBLIC "-//W3C//DTD SVG 20010904//EN"
 "http://www.w3.org/TR/2001/REC-SVG-20010904/DTD/svg10.dtd">
<svg version="1.0" xmlns="http://www.w3.org/2000/svg"
 width="512.000000pt" height="512.000000pt" viewBox="0 0 512.000000 512.000000"
 preserveAspectRatio="xMidYMid meet">

<g transform="translate(0.000000,512.000000) scale(0.100000,-0.100000)"
fill="#000000" stroke="none">
<path d="M2375 5054 c-16 -2 -73 -9 -125 -15 -435 -49 -869 -231 -1240 -518
-110 -85 -327 -302 -412 -412 -278 -358 -445 -750 -515 -1206 -23 -150 -23
-536 0 -686 112 -727 493 -1334 1087 -1732 330 -221 669 -348 1085 -407 135
-19 503 -16 650 5 264 39 515 116 750 232 761 373 1268 1080 1386 1935 17 122
18 496 1 615 -91 647 -391 1200 -867 1602 -357 302 -802 502 -1265 568 -108
16 -467 29 -535 19z m480 -1139 c107 -19 268 -71 357 -116 360 -180 622 -530
697 -931 l8 -48 -366 0 -366 0 -19 48 c-75 183 -246 334 -428 377 -81 19 -216
19 -297 0 -297 -70 -491 -343 -491 -689 0 -254 105 -468 289 -590 189 -125
430 -140 633 -39 128 65 250 210 295 354 l18 59 368 0 367 0 0 -24 c0 -14 -13
-76 -29 -138 -134 -517 -521 -879 -1044 -975 -127 -23 -399 -23 -522 1 -516
98 -903 430 -1059 908 -48 146 -67 274 -67 442 0 243 41 428 140 631 208 426
597 688 1111 749 71 8 317 -3 405 -19z"/>
</g>
</svg>
