<?xml version="1.0" standalone="no"?>
<!DOCTYPE svg PUBLIC "-//W3C//DTD SVG 20010904//EN"
 "http://www.w3.org/TR/2001/REC-SVG-20010904/DTD/svg10.dtd">
<svg version="1.0" xmlns="http://www.w3.org/2000/svg"
 width="512.000000pt" height="512.000000pt" viewBox="0 0 512.000000 512.000000"
 preserveAspectRatio="xMidYMid meet">

<g transform="translate(0.000000,512.000000) scale(0.100000,-0.100000)"
fill="#000000" stroke="none">
<path d="M735 5113 c-183 -25 -362 -119 -497 -261 -121 -127 -201 -284 -227
-452 -7 -43 -11 -658 -11 -1845 0 -1696 1 -1784 19 -1870 36 -176 117 -321
246 -444 128 -122 253 -188 420 -222 86 -18 175 -19 1871 -19 1577 0 1791 2
1864 16 171 32 305 101 432 222 133 127 213 270 249 447 18 86 19 174 19 1875
0 1701 -1 1789 -19 1875 -36 177 -116 320 -249 447 -127 121 -261 190 -432
222 -73 14 -283 16 -1869 15 -982 -1 -1799 -4 -1816 -6z m2248 -1113 c147 -14
260 -45 375 -101 86 -42 117 -63 181 -127 136 -136 185 -266 186 -497 0 -119
-3 -151 -23 -215 -57 -183 -171 -314 -352 -405 l-54 -28 89 -28 c122 -40 188
-80 270 -164 82 -83 132 -170 171 -300 25 -83 28 -104 28 -265 1 -140 -3 -188
-17 -240 -79 -283 -295 -472 -639 -561 -173 -44 -267 -48 -1060 -49 l-748 0 0
1495 0 1495 748 0 c411 0 791 -5 845 -10z"/>
<path d="M1910 3171 l0 -411 474 0 c436 0 479 2 535 19 115 36 211 114 251
204 57 129 43 346 -29 452 -32 48 -104 99 -174 122 -46 15 -111 18 -554 21
l-503 3 0 -410z"/>
<path d="M1910 1915 l0 -465 513 0 c416 0 524 3 575 15 218 51 342 217 342
455 0 185 -83 334 -226 404 -107 53 -145 56 -696 56 l-508 0 0 -465z"/>
</g>
</svg>
