<?xml version="1.0" encoding="UTF-8"?>
<svg version="1.1" xmlns="http://www.w3.org/2000/svg" width="512" height="512">
<path d="M0 0 C0.79225479 -0.00979385 1.58450958 -0.01958771 2.40077209 -0.02967834 C19.78527351 -0.20031763 36.53947218 -0.07371186 53.49609375 4.23828125 C54.85105957 4.57569336 54.85105957 4.57569336 56.23339844 4.91992188 C107.79543573 18.04086091 150.81356663 50.28319848 178.12109375 95.9921875 C189.25422056 115.41584358 196.50795502 137.26235627 200.49609375 159.23828125 C200.67269531 160.14271973 200.84929687 161.0471582 201.03125 161.97900391 C202.78428296 171.85077077 202.89420309 181.61919214 202.87109375 191.61328125 C202.87027802 192.94004379 202.87027802 192.94004379 202.8694458 194.29360962 C202.82992388 208.28926902 201.97963496 221.62579475 198.49609375 235.23828125 C198.27115234 236.1401416 198.04621094 237.04200195 197.81445312 237.97119141 C184.69524984 289.53544289 152.45274241 332.55481864 106.7421875 359.86328125 C87.30027154 371.00687414 65.47874178 378.20586633 43.49609375 382.23828125 C42.63850338 382.40603152 41.78091301 382.5737818 40.89733505 382.74661541 C30.94772004 384.50927114 21.1803276 384.52809941 11.11425781 384.51293945 C9.18920699 384.51729512 7.2641579 384.52248109 5.33911133 384.52842712 C0.14467071 384.54173776 -5.04969679 384.54240459 -10.24415112 384.53986382 C-14.59750197 384.53878851 -18.95083837 384.54369183 -23.30418611 384.54846925 C-33.58463783 384.55953741 -43.86505302 384.56001729 -54.14550781 384.55395508 C-64.71155338 384.54791973 -75.27746563 384.5602214 -85.84348845 384.58152515 C-94.95053122 384.59920448 -104.0575318 384.60513248 -113.16459107 384.6018874 C-118.58811463 384.60008418 -124.01154312 384.60261382 -129.43505096 384.61660194 C-134.54057152 384.62927888 -139.64588602 384.62714397 -144.75140381 384.61419106 C-146.61161624 384.61184689 -148.47184363 384.61448114 -150.33203888 384.62281418 C-165.75647416 384.68685961 -180.22059437 382.85151804 -195.06640625 378.48828125 C-195.94643311 378.23151611 -196.82645996 377.97475098 -197.7331543 377.71020508 C-205.98917652 375.22119665 -213.7981311 372.09902785 -221.50390625 368.23828125 C-222.47505371 367.75367432 -222.47505371 367.75367432 -223.46582031 367.25927734 C-259.12227755 349.11503876 -288.71269799 316.04697875 -301.28466797 277.8671875 C-302.11667721 275.22805619 -302.91255337 272.58107119 -303.69140625 269.92578125 C-303.92956055 269.12100342 -304.16771484 268.31622559 -304.41308594 267.48706055 C-308.21702032 253.89986575 -310.01319806 240.58718509 -309.89501953 226.50878906 C-309.87890654 224.23832191 -309.89500392 221.96963355 -309.9140625 219.69921875 C-309.93527717 205.63626107 -307.72273908 192.17964281 -303.75390625 178.67578125 C-303.49714111 177.79575439 -303.24037598 176.91572754 -302.97583008 176.0090332 C-300.48682165 167.75301098 -297.36465285 159.9440564 -293.50390625 152.23828125 C-293.01929932 151.26713379 -293.01929932 151.26713379 -292.52490234 150.27636719 C-274.38066376 114.61990995 -241.31260375 85.02948951 -203.1328125 72.45751953 C-196.97346012 70.51572979 -190.76138115 68.83147214 -184.50390625 67.23828125 C-183.82618164 67.05604004 -183.14845703 66.87379883 -182.45019531 66.68603516 C-174.6108986 64.63541225 -167.35563261 64.16318184 -159.2734375 64.484375 C-157.75936107 64.53181311 -156.24528226 64.57917539 -154.73120117 64.62646484 C-151.71009786 64.72449321 -148.7100105 64.90773756 -145.6965332 65.13916016 C-137.40962676 65.59714633 -137.40962676 65.59714633 -130.29980469 61.77294922 C-127.43962514 58.79900419 -125.00768194 55.51244946 -122.50390625 52.23828125 C-119.9648759 49.73936649 -117.2715609 47.47893338 -114.50390625 45.23828125 C-113.5291333 44.44405762 -113.5291333 44.44405762 -112.53466797 43.63378906 C-80.79678368 18.18469345 -41.22389456 0.42285672 0 0 Z " fill="#F44336" transform="translate(309.50390625,63.76171875)"/>
<path d="M0 0 C1.68222656 0.56847656 1.68222656 0.56847656 3.3984375 1.1484375 C22.20352685 7.82732314 39.33790933 18.46386074 53.89453125 32.046875 C55.61257461 33.64060724 57.34865335 35.11458926 59.1875 36.5625 C79.55458287 54.21397182 94.130052 81.25316786 101 107 C101.34804688 108.216875 101.69609375 109.43375 102.0546875 110.6875 C110.53976958 141.28452153 108.75773776 174.27655678 98 204 C97.62101562 205.12148438 97.24203125 206.24296875 96.8515625 207.3984375 C90.17267686 226.20352685 79.53613926 243.33790933 65.953125 257.89453125 C64.35939276 259.61257461 62.88541074 261.34865335 61.4375 263.1875 C43.59611458 283.77371394 16.55216382 297.09537378 -9 305 C-9.75821045 305.24806396 -10.5164209 305.49612793 -11.29760742 305.75170898 C-49.34104845 317.85013097 -93.21536302 310.84327636 -128.12988281 292.90576172 C-152.82965818 279.55271327 -171.83779607 260.20802186 -188.85595703 238.25048828 C-192.11904067 234.05910353 -195.51779426 230.01052497 -199 226 C-203.48905334 220.8281129 -207.78274601 215.54111801 -211.97851562 210.12915039 C-215.82473026 205.17931849 -219.83470119 200.38665657 -223.90625 195.62109375 C-228.06765751 190.41157055 -229.58022606 187.07072365 -229.34375 180.4296875 C-228.61797572 175.29978293 -225.59554489 172.28415472 -221.75 169.125 C-217.94970583 166.62118145 -214.44586011 166.11253464 -210 167 C-202.73532216 169.15249714 -198.62258095 174.28305803 -194 180 C-193.278125 180.87269531 -192.55625 181.74539063 -191.8125 182.64453125 C-189.52702549 185.41804979 -187.26246467 188.20769317 -185 191 C-183.50099052 192.83414331 -182.00099484 194.66748108 -180.5 196.5 C-177.5 200.16666667 -174.5 203.83333333 -171.5 207.5 C-170.75492188 208.41007813 -170.00984375 209.32015625 -169.2421875 210.2578125 C-167.7659514 212.06324411 -166.29193264 213.87049141 -164.8203125 215.6796875 C-162.55550297 218.46032554 -160.27994686 221.23176139 -158 224 C-157.57992676 224.51320801 -157.15985352 225.02641602 -156.72705078 225.55517578 C-134.26849428 252.92680174 -105.33709739 273.52838162 -69.28955078 277.79345703 C-34.52712803 280.92941455 0.54634185 272.08266611 27.78125 249.77734375 C54.09048816 227.41287129 70.01201733 197.63356113 73.6875 163.3125 C74.93875258 145.69069288 73.83521934 127.75338235 68 111 C67.64035156 109.9378125 67.28070313 108.875625 66.91015625 107.78125 C55.16739726 75.20201293 31.0911989 49.71147824 -0.05078125 34.87890625 C-11.30784413 29.80307629 -22.80870911 26.76608971 -35 25 C-35.89332031 24.86851562 -36.78664063 24.73703125 -37.70703125 24.6015625 C-40.47743869 24.27871187 -43.21245391 24.11558118 -46 24 C-47.0837793 23.95117676 -47.0837793 23.95117676 -48.18945312 23.90136719 C-74.98343431 22.84455279 -102.23074803 29.46078084 -124.23828125 45.3359375 C-127 47 -127 47 -128.95800781 46.70849609 C-132.27604019 45.55726104 -135.32972019 43.8688815 -138.4375 42.25 C-145.47118537 38.64896034 -152.54929698 35.65367505 -160 33 C-158.35636289 31.30499923 -156.69203689 29.64608034 -155 28 C-154.48824219 27.49210937 -153.97648437 26.98421875 -153.44921875 26.4609375 C-114.03172846 -10.42194699 -49.1647108 -17.79407124 0 0 Z " fill="#F9F8F8" transform="translate(373,105)"/>
<path d="M0 0 C10.95559195 -0.3881326 21.28721777 0.37004779 31.94140625 3.08251953 C32.80926758 3.30294922 33.67712891 3.52337891 34.57128906 3.75048828 C53.86747675 8.81046674 69.97169302 17.19732246 86.50390625 28.16845703 C91.37542702 31.39342136 96.34072784 34.45907623 101.31640625 37.52001953 C107.98554916 41.62982671 114.63636139 45.7650945 121.25390625 49.95751953 C127.44163082 53.87728296 133.64139065 57.77686048 139.85498047 61.65551758 C141.90305582 62.93422813 143.9502655 64.2143263 145.99658203 65.49584961 C150.8226469 68.51768713 155.65608213 71.52492998 160.515625 74.49267578 C161.38123047 75.02634766 162.24683594 75.56001953 163.13867188 76.10986328 C164.74285894 77.09879742 166.35190864 78.07990819 167.96679688 79.05126953 C173.38925814 82.4129032 177.84973573 85.80750798 179.94140625 92.08251953 C180.36282561 97.56097123 179.61628025 101.26774634 176.94140625 106.08251953 C173.13816806 110.11436767 169.38583057 112.1970247 163.828125 112.46533203 C158.13295708 112.38490803 154.42233004 110.00677928 149.75390625 106.95751953 C148.46468262 106.14988159 148.46468262 106.14988159 147.14941406 105.32592773 C144.40064692 103.5974009 141.67085996 101.84135028 138.94140625 100.08251953 C137.15984764 98.9520461 135.37730001 97.82312975 133.59375 96.69580078 C129.94141356 94.38291961 126.29661647 92.05872209 122.65625 89.72705078 C116.71509616 85.9282041 110.73779867 82.18857394 104.75390625 78.45751953 C97.57304106 73.97959329 90.40309607 69.48584198 83.25390625 64.95751953 C80.15136352 62.99660364 77.04697431 61.03864031 73.94140625 59.08251953 C72.60770996 58.24213135 72.60770996 58.24213135 71.24707031 57.38476562 C68.46096834 55.63287638 65.67053409 53.88808713 62.87890625 52.14501953 C62.03432861 51.61312012 61.18975098 51.0812207 60.31958008 50.53320312 C36.55912656 35.7488168 8.79265735 28.28505472 -19.05859375 34.64501953 C-33.43309025 38.40078139 -45.42677763 44.96245805 -57.05859375 54.08251953 C-57.79335937 54.62134766 -58.528125 55.16017578 -59.28515625 55.71533203 C-74.12517316 67.37970747 -84.25009879 87.16454885 -89.05859375 105.08251953 C-89.28289062 105.91267578 -89.5071875 106.74283203 -89.73828125 107.59814453 C-95.30370706 132.45196388 -89.06499885 158.46896815 -76.12890625 179.85986328 C-73.0972174 184.57900159 -69.78065805 188.89060885 -66.05859375 193.08251953 C-65.45660156 193.76701172 -64.85460937 194.45150391 -64.234375 195.15673828 C-49.87487814 210.47955568 -28.76158265 220.30905818 -8.05859375 223.08251953 C-5.86447328 223.05140083 -3.67067039 222.96333432 -1.48046875 222.82861328 C-0.23652344 222.78027344 1.00742188 222.73193359 2.2890625 222.68212891 C4.87673172 222.57463314 7.46318888 222.43175498 10.046875 222.25244141 C19.36997076 221.97823271 19.36997076 221.97823271 23.91601562 225.17285156 C26.44412938 227.69862274 28.68976604 230.31027034 30.94140625 233.08251953 C34.0694696 236.29028988 37.28170381 239.35470276 40.62890625 242.33251953 C41.39589844 243.01830078 42.16289062 243.70408203 42.953125 244.41064453 C44.83939289 246.12874098 44.83939289 246.12874098 46.94140625 247.08251953 C46.94140625 247.74251953 46.94140625 248.40251953 46.94140625 249.08251953 C20.90845845 258.50824201 -9.79957059 259.22856279 -36.05859375 250.08251953 C-37.12078125 249.72287109 -38.18296875 249.36322266 -39.27734375 248.99267578 C-72.17729919 237.13431806 -98.20109025 212.48030827 -113.1796875 181.03173828 C-126.01573146 152.56424523 -128.36813563 117.68204048 -118.05859375 88.08251953 C-117.69894531 87.02033203 -117.33929688 85.95814453 -116.96875 84.86376953 C-104.73494674 50.92217395 -79.35771896 25.44981121 -47.11376953 10.01220703 C-32.22862453 3.27870357 -16.20901682 0.64974474 0 0 Z " fill="#F9F8F8" transform="translate(156.05859375,159.91748046875)"/>
</svg>
