<?xml version="1.0" encoding="UTF-8"?>
<svg version="1.1" xmlns="http://www.w3.org/2000/svg" width="512" height="512">
<path d="M0 0 C1.43980131 0.40851057 2.87995716 0.81577323 4.32043457 1.22189331 C8.20206928 2.32033752 12.07830281 3.43678802 15.95361543 4.55730343 C20.02273328 5.73111871 24.09610355 6.89000467 28.16886902 8.05108643 C35.00142421 10.00145348 41.8305562 11.96344886 48.65771484 13.93261719 C56.54074468 16.20619158 64.42872697 18.46186459 72.31963617 20.70792651 C79.9294647 22.87436828 87.53581637 25.0527759 95.1406002 27.23685455 C98.36943905 28.16398643 101.59939804 29.08705499 104.8303318 30.00685883 C108.63434915 31.0904478 112.43519048 32.18454491 116.23386383 33.28671646 C117.6251634 33.68860896 119.01749317 34.08695528 120.41091728 34.48141861 C122.31811583 35.02198324 124.22121962 35.57693224 126.12409973 36.13250732 C127.18831052 36.43854259 128.25252131 36.74457787 129.3489809 37.05988693 C133.31007808 38.57415362 137.06638849 40.31444465 139.50719923 43.90866363 C140.66223023 47.05128268 140.60578014 49.76935341 140.60956383 53.11779594 C140.6130699 53.8162237 140.61657598 54.51465146 140.6201883 55.23424369 C140.6295288 57.58616249 140.62457222 59.93783512 140.61972046 62.2897644 C140.62345538 63.98836028 140.62805627 65.68695444 140.6334511 67.38554585 C140.64571596 72.0623928 140.64541655 76.73916841 140.64306235 81.41602778 C140.64265507 86.45634874 140.65368485 91.49664655 140.66317749 96.53695679 C140.67980734 106.41514236 140.68528792 116.29330406 140.68640225 126.17150246 C140.68735174 134.19862926 140.69145708 142.22574816 140.6978035 150.25287247 C140.71542097 172.9979116 140.72464152 195.74293184 140.72314255 218.48797785 C140.72306264 219.71478207 140.72298272 220.9415863 140.72290039 222.20556641 C140.72281863 223.43386382 140.72273687 224.66216124 140.72265263 225.92767979 C140.72183948 245.84030607 140.74098302 265.75285676 140.76917712 285.66546117 C140.79788047 306.0985064 140.81171884 326.53151474 140.80998957 346.96458066 C140.80932481 358.44147567 140.81485485 369.91829142 140.83634567 381.3951683 C140.8545239 391.16581619 140.85893246 400.93634888 140.84532683 410.70700632 C140.83878031 415.69406429 140.83874055 420.68090107 140.85603333 425.66793823 C140.87169479 430.23137146 140.86897169 434.79440683 140.85146506 439.35782994 C140.84837984 441.01056702 140.85208449 442.66333329 140.86318521 444.31603597 C140.8772617 446.56002062 140.866757 448.80260105 140.85007286 451.0465374 C140.85072496 452.91720479 140.85072496 452.91720479 140.85139024 454.82566345 C140.25461386 458.86998755 138.8921518 461.04126128 136.35229492 464.20800781 C134.04499817 465.52389145 134.04499817 465.52389145 131.47265625 466.32513428 C130.00996811 466.7947823 130.00996811 466.7947823 128.51773071 467.27391815 C127.4731369 467.58216774 126.42854309 467.89041733 125.35229492 468.20800781 C124.29489105 468.53291451 123.23748718 468.8578212 122.14804077 469.19257355 C118.58239731 470.2698735 115.00661843 471.30579149 111.42651367 472.33398438 C110.06336324 472.72837196 108.70029806 473.12305428 107.33731079 473.51800537 C103.66907684 474.57962849 99.99937769 475.63608875 96.32913589 476.69074726 C94.02975308 477.35151853 91.73059457 478.01306517 89.43148804 478.67479706 C82.21861297 480.75036588 75.0047312 482.8223865 67.78950596 484.88977075 C59.4946513 487.26660313 51.20343453 489.65562312 42.91508389 492.05503488 C36.48116035 493.91675902 30.04406503 495.76722676 23.6045084 497.60937095 C19.76976145 498.70664873 15.93650441 499.8085753 12.10653687 500.92243195 C8.50510193 501.9695173 4.89990246 503.00247852 1.29145432 504.0251236 C-0.64739874 504.57834481 -2.58214811 505.14588673 -4.51669312 505.71398926 C-6.28250229 506.21016754 -6.28250229 506.21016754 -8.08398438 506.71636963 C-9.5959565 507.15103735 -9.5959565 507.15103735 -11.13847351 507.59448624 C-20.29757417 509.19577865 -27.89669524 507.99816226 -36.61091614 505.01472473 C-37.65738727 504.67115061 -38.7038584 504.32757649 -39.78204077 503.97359103 C-43.26323105 502.82618692 -46.7361209 501.6555172 -50.20947266 500.48461914 C-52.71319843 499.65392353 -55.2173215 498.82452758 -57.72198486 497.99667358 C-63.8025228 495.98351933 -69.87703526 493.95275569 -75.94957349 491.91561434 C-80.88575312 490.26009598 -85.82413111 488.61129939 -90.76413536 486.96722984 C-91.46862975 486.73276775 -92.17312414 486.49830566 -92.89896685 486.25673866 C-94.33034437 485.78040365 -95.76172813 485.30408737 -97.19311806 484.82778963 C-110.59495493 480.36750767 -123.99014189 475.88753117 -137.38301339 471.40041258 C-148.86779816 467.55303413 -160.35768563 463.72125015 -171.8515625 459.90112305 C-185.21362865 455.46006487 -198.57277257 451.01039937 -211.92714423 446.54625148 C-213.35154501 446.07011549 -214.77594813 445.59398651 -216.20035362 445.11786461 C-216.9011126 444.8836188 -217.60187158 444.64937298 -218.32386569 444.40802881 C-223.25585476 442.7600118 -228.1898306 441.11803537 -233.12458229 439.47831154 C-239.76672395 437.27099625 -246.40387689 435.04920956 -253.03791809 432.81766891 C-255.47363568 432.00072961 -257.91089733 431.18837753 -260.34978294 430.38094521 C-263.67731855 429.27846561 -266.99886284 428.15952416 -270.31941223 427.03620911 C-271.28662368 426.72004271 -272.25383513 426.40387631 -273.25035602 426.07812911 C-278.6908026 424.21450449 -282.55350713 422.28853631 -286.64770508 418.20800781 C-287.84467134 415.20788636 -287.91026017 412.41701448 -287.64770508 409.20800781 C-286.20504056 405.88987942 -284.31821622 403.62418456 -281.64770508 401.20800781 C-282.85426758 400.06332031 -282.85426758 400.06332031 -284.08520508 398.89550781 C-287.42489053 395.39291088 -287.77220379 393.08514929 -287.78192616 388.43590832 C-287.786384 387.44783442 -287.79084184 386.45976052 -287.79543477 385.44174498 C-287.79525041 384.35343786 -287.79506605 383.26513073 -287.7948761 382.1438446 C-287.79855279 380.98986941 -287.80222947 379.83589421 -287.80601758 378.64695007 C-287.81514538 375.43865999 -287.81975431 372.23039997 -287.82240689 369.02209914 C-287.82630995 365.563919 -287.83588819 362.10575369 -287.84461975 358.64758301 C-287.86438267 350.29426928 -287.87444951 341.94095435 -287.88334754 333.58762309 C-287.88773016 329.65491435 -287.89309698 325.72220696 -287.89833641 321.78949928 C-287.91534745 308.71854653 -287.92984248 295.64759462 -287.93708515 282.5766325 C-287.93899507 279.18463324 -287.9409154 275.792634 -287.94287109 272.40063477 C-287.94335483 271.55756115 -287.94383857 270.71448754 -287.94433697 269.84586624 C-287.95264053 256.1830648 -287.97798348 242.52035083 -288.01045177 228.8575876 C-288.0435062 214.83400799 -288.06153239 200.81047286 -288.06472939 186.78685409 C-288.06689584 178.9115604 -288.07566427 171.0363943 -288.10119057 163.16113853 C-288.12287541 156.45552505 -288.13095893 149.75007014 -288.12122378 143.04442557 C-288.11667276 139.62286219 -288.11861132 136.20162617 -288.13798523 132.7801075 C-288.15559189 129.07083363 -288.14865233 125.36239535 -288.13545227 121.65312195 C-288.14642152 120.57150699 -288.15739076 119.48989203 -288.16869241 118.37550086 C-288.116714 112.34289393 -287.69415642 108.79401555 -283.64770508 104.20800781 C-281.73291016 102.87866211 -281.73291016 102.87866211 -279.66723633 102.03222656 C-278.85585205 101.68885254 -278.04446777 101.34547852 -277.20849609 100.99169922 C-276.30156006 100.62995605 -275.39462402 100.26821289 -274.46020508 99.89550781 C-273.46883545 99.48220215 -272.47746582 99.06889648 -271.45605469 98.64306641 C-268.52753237 97.42579821 -265.59242573 96.22584891 -262.65527344 95.02960205 C-258.99478179 93.53155152 -255.34540015 92.00678336 -251.69458008 90.48535156 C-244.7898834 87.61066002 -237.88044128 84.74765958 -230.96801758 81.89160156 C-219.3310035 77.08211845 -207.70718295 72.24119093 -196.08520508 67.39550781 C-194.05990157 66.55125577 -192.0345923 65.70701755 -190.00927734 64.86279297 C-185.92629079 63.16078871 -181.84337505 61.45861471 -177.76049805 59.75634766 C-168.72116516 55.98775231 -159.68087838 52.22144639 -150.64065552 48.45498657 C-145.64296555 46.37275589 -140.64533853 44.29037414 -135.64770508 42.20800781 C-133.64770538 41.37467376 -131.64770538 40.54134042 -129.64770508 39.70800781 C-128.65770508 39.29550781 -127.66770508 38.88300781 -126.64770508 38.45800781 C-123.64770508 37.20800781 -120.64770508 35.95800781 -117.64770508 34.70800781 C-116.65793671 34.29560349 -115.66816833 33.88319916 -114.64840698 33.45829773 C-112.64606971 32.62399223 -110.64373002 31.78969252 -108.64138794 30.95539856 C-103.67712855 28.88698656 -98.71290953 26.8184778 -93.7487793 24.74975586 C-84.3223671 20.82157315 -74.89550845 16.89447032 -65.46734619 12.9704895 C-60.98320936 11.10413647 -56.4992864 9.23726995 -52.01538086 7.37036133 C-49.86509766 6.47524645 -47.71470816 5.58038689 -45.56420898 4.68579102 C-42.59438095 3.45034069 -39.62491068 2.2140343 -36.65551758 0.97753906 C-35.76841095 0.60877151 -34.88130432 0.24000397 -33.96731567 -0.13993835 C-33.15946625 -0.47652969 -32.35161682 -0.81312103 -31.51928711 -1.15991211 C-30.46404343 -1.59904182 -30.46404343 -1.59904182 -29.38748169 -2.04704285 C-19.64233448 -6.21978603 -9.78733126 -2.85550215 0 0 Z M-19.01869202 86.98558044 C-20.17175871 87.27241254 -20.17175871 87.27241254 -21.34811968 87.56503922 C-23.93821323 88.20997136 -26.5274476 88.85828841 -29.11669922 89.5065918 C-30.96751689 89.9682101 -32.81838375 90.42963125 -34.66929626 90.89086914 C-39.70684119 92.14689832 -44.74362363 93.40595985 -49.78023076 94.66574359 C-53.97772513 95.71538391 -58.17556806 96.76362633 -62.3734073 97.81188637 C-72.27145734 100.28362189 -82.16887641 102.75787239 -92.06591797 105.23364258 C-102.29426106 107.79223963 -112.52367726 110.34651189 -122.75362688 112.89867729 C-131.52197379 115.0863692 -140.28963973 117.27677468 -149.05676168 119.46937042 C-154.29953841 120.78051924 -159.54257543 122.09060384 -164.78627205 123.39806938 C-169.71420641 124.62692439 -174.6412857 125.85914903 -179.56771278 127.09403229 C-181.38111242 127.54797698 -183.19481726 128.00070434 -185.00883865 128.45215797 C-187.47461849 129.066014 -189.93928367 129.68415514 -192.40370178 130.30345154 C-193.13092298 130.48341327 -193.85814418 130.66337499 -194.60740238 130.84879011 C-197.90278112 131.48104735 -197.90278112 131.48104735 -200.64770508 133.20800781 C-200.75363762 136.10217017 -200.79374659 138.97283572 -200.79246521 141.86772156 C-200.79599206 142.78722542 -200.7995189 143.70672928 -200.80315262 144.6540969 C-200.8138961 147.76020692 -200.81753038 150.86628635 -200.82128906 153.97241211 C-200.82759008 156.18939851 -200.83435537 158.40638364 -200.84155273 160.62336731 C-200.8562553 165.41045048 -200.86796683 170.19752865 -200.87750053 174.98462486 C-200.89291239 182.55168853 -200.91686188 190.11870985 -200.94239807 197.68574524 C-200.97754701 208.29431553 -201.01063457 218.9028884 -201.04052734 229.51147461 C-201.04337808 230.52208397 -201.04337808 230.52208397 -201.04628641 231.55310968 C-201.07309891 241.10728266 -201.09697591 250.66146075 -201.11967141 260.21564428 C-201.12126871 260.8878679 -201.12286601 261.56009152 -201.12451172 262.25268555 C-201.12690192 263.25979433 -201.12690192 263.25979433 -201.1293404 264.28724875 C-201.15611649 275.48575781 -201.19063613 286.68423088 -201.23116547 297.88269931 C-201.25796522 305.40679851 -201.27585396 312.93085031 -201.28720272 320.45498788 C-201.29632286 325.13699863 -201.3136824 329.81895182 -201.33338165 334.50092888 C-201.3408612 336.67374009 -201.34493846 338.84656606 -201.34537697 341.01939011 C-201.34645852 343.98416644 -201.35969794 346.94864958 -201.3759613 349.91337585 C-201.37203602 351.20516857 -201.37203602 351.20516857 -201.36803144 352.52305812 C-201.40747525 357.12224976 -201.76491427 360.92356558 -203.64770508 365.20800781 C-206.99686882 368.45964442 -210.74685582 370.44057967 -214.90673828 372.5078125 C-215.81491554 372.96222969 -215.81491554 372.96222969 -216.74143982 373.42582703 C-218.72432871 374.41623444 -220.7113173 375.39809546 -222.69848633 376.37988281 C-224.08165734 377.0686679 -225.4645627 377.75798668 -226.84721375 378.44781494 C-230.47280172 380.25490386 -234.10193611 382.05475382 -237.73187256 383.85308838 C-241.44102414 385.69227244 -245.14675407 387.5383236 -248.8527832 389.38378906 C-256.11443756 392.99856796 -263.37985526 396.60570179 -270.64770508 400.20800781 C-270.64770508 400.86800781 -270.64770508 401.52800781 -270.64770508 402.20800781 C-237.54239857 407.30464964 -204.43697112 412.40050499 -171.33138013 417.49529862 C-167.42713666 418.09614389 -163.52289419 418.69699571 -159.61865234 419.29785156 C-158.84135481 419.41747615 -158.06405728 419.53710074 -157.26320528 419.66035032 C-144.66055633 421.59988968 -132.05798912 423.53995966 -119.45545179 425.48022413 C-106.53384051 427.46960064 -93.61214213 429.45841065 -80.69036192 431.44668961 C-72.71043535 432.67458221 -64.73057788 433.902922 -56.75080692 435.13182545 C-50.64236336 436.07249176 -44.53379905 437.01237168 -38.42518806 437.95195007 C-35.91159065 438.33869991 -33.39803325 438.72570995 -30.88451767 439.11299133 C-27.46930562 439.63916703 -24.05395462 440.16443109 -20.63856506 440.68945312 C-19.12546449 440.92291002 -19.12546449 440.92291002 -17.58179623 441.16108322 C-16.67412233 441.30041904 -15.76644843 441.43975487 -14.83126926 441.58331299 C-14.0418307 441.70482349 -13.25239213 441.826334 -12.43903118 441.95152664 C-10.78432001 442.23163016 -10.78432001 442.23163016 -9.64770508 442.20800781 C-9.64770508 324.39800781 -9.64770508 206.58800781 -9.64770508 85.20800781 C-12.86604557 85.20800781 -15.9126789 86.20502931 -19.01869202 86.98558044 Z " fill="#FF5622" transform="translate(329.647705078125,3.7919921875)"/>
</svg>
