<?xml version="1.0" encoding="UTF-8"?>
<svg version="1.1" xmlns="http://www.w3.org/2000/svg" width="512" height="512">
<path d="M0 0 C1.03362307 -0.00453111 2.06724614 -0.00906223 3.13219112 -0.01373065 C6.57710077 -0.02633627 10.02185154 -0.02475673 13.46678162 -0.02310181 C15.94458213 -0.02908955 18.42238079 -0.03589566 20.900177 -0.04345703 C26.9222004 -0.05927062 32.94416195 -0.06556449 38.96620036 -0.06668179 C43.86669309 -0.06763476 48.767173 -0.07175746 53.66766167 -0.07808304 C67.58917645 -0.09568473 81.5106605 -0.10492391 95.43218649 -0.10342209 C96.18159116 -0.10334218 96.93099584 -0.10326227 97.70310974 -0.10317993 C98.45343941 -0.10309817 99.20376908 -0.10301641 99.97683602 -0.10293217 C112.12257794 -0.10212018 124.26819557 -0.12123861 136.41390157 -0.14945666 C148.91220973 -0.17826255 161.41045743 -0.19199265 173.90879959 -0.19026911 C180.91465154 -0.18960773 187.92037328 -0.19498839 194.92619514 -0.21662521 C201.52136348 -0.2368645 208.11630535 -0.23608497 214.71150398 -0.22159195 C217.12201846 -0.21951109 219.53255038 -0.22416119 221.94303513 -0.23631287 C245.46839429 -0.34715601 265.24861326 2.91194565 283.3825531 19.26742554 C284.06704529 19.85910522 284.75153748 20.45078491 285.45677185 21.06039429 C297.52214463 32.17760417 306.38816709 49.2810702 307.55752563 65.72846985 C307.61173039 68.33882653 307.60800633 70.9418504 307.5778656 73.55258179 C307.57362076 74.96512489 307.57362076 74.96512489 307.56929016 76.40620422 C307.55819517 79.38091344 307.53311113 82.35530904 307.5075531 85.32992554 C307.49750947 87.36052011 307.48838606 89.39111946 307.48020935 91.42172241 C307.45829094 96.3704089 307.4238361 101.31886425 307.3825531 106.26742554 C308.07587234 106.26298431 308.76919159 106.25854309 309.48352051 106.25396729 C316.08637772 106.21353453 322.68919931 106.18326305 329.29215336 106.16380119 C332.68505286 106.15345864 336.07784825 106.1394789 339.47068787 106.11654663 C368.22811423 105.93644855 394.46423008 106.88911918 416.3825531 128.26742554 C432.35308236 145.32264262 437.8538525 164.14549678 437.78660583 187.19052124 C437.79231912 188.97089056 437.79928706 190.75125622 437.80740356 192.53161621 C437.8252461 197.33553203 437.82418322 202.1392643 437.81846118 206.94320321 C437.81535579 210.96863639 437.82147686 214.994035 437.82749993 219.01946324 C437.84151488 228.52459165 437.84000969 238.02963012 437.82859802 247.53475952 C437.8171251 257.30619156 437.83118558 267.07734885 437.8579945 276.84874469 C437.88022391 285.26955309 437.88677246 293.69027571 437.88091809 302.11111134 C437.87756395 307.12660918 437.87985993 312.14193107 437.89716911 317.15740395 C437.91275167 321.87803117 437.90855864 326.5982548 437.88986397 331.31886673 C437.88620888 333.03962444 437.88919525 334.76041282 437.89974976 336.48114204 C438.02543373 358.68746841 431.43120624 377.65349231 415.84886169 393.83334351 C399.18358241 410.13235292 380.08353712 413.87784827 357.3825531 416.26742554 C357.3825531 433.42742554 357.3825531 450.58742554 357.3825531 468.26742554 C353.66795044 467.33877487 351.23796674 466.22623882 347.9294281 464.38070679 C346.84774353 463.77927856 345.76605896 463.17785034 344.65159607 462.55819702 C343.47844181 461.89902218 342.30543118 461.23959167 341.1325531 460.57992554 C339.9140447 459.89887626 338.69545634 459.21797002 337.47679138 458.53720093 C328.69974548 453.62215041 320.00024266 448.57962887 311.32737732 443.48300171 C303.04010583 438.62207933 294.67587712 433.90729584 286.28050232 429.2359314 C285.32160095 428.70234009 284.36269958 428.16874878 283.3747406 427.61898804 C282.44529633 427.11829803 281.51585205 426.61760803 280.5582428 426.10174561 C277.3825531 424.26742554 277.3825531 424.26742554 274.63218689 422.22157288 C263.18067702 414.25292484 251.36604481 415.20501185 237.8591156 415.37289429 C235.38396417 415.37299311 232.90880973 415.36912222 230.43367004 415.36149597 C223.94581439 415.35010532 217.45903404 415.3835593 210.97135925 415.42941284 C200.59833499 415.49617791 190.22521251 415.49844381 179.85201645 415.49273109 C176.25601859 415.49777588 172.66069948 415.52456123 169.06483459 415.55458069 C143.73592895 415.67760464 121.82949738 411.61705633 102.72239685 393.62680054 C90.02512506 380.82354151 83.20546876 365.5904236 80.3122406 347.93930054 C80.13676697 346.87292358 79.96129333 345.80654663 79.78050232 344.70785522 C79.64917908 343.90251343 79.51785583 343.09717163 79.3825531 342.26742554 C66.94079086 349.17704707 54.53395702 356.12993929 42.2575531 363.32992554 C34.01975969 368.15999127 25.75385252 372.9354031 17.4450531 377.64242554 C16.44909119 378.20840454 15.45312927 378.77438354 14.42698669 379.35751343 C13.51642517 379.8717688 12.60586365 380.38602417 11.66770935 380.91586304 C10.86212585 381.3713855 10.05654236 381.82690796 9.22654724 382.29623413 C7.3825531 383.26742554 7.3825531 383.26742554 6.3825531 383.26742554 C6.3825531 365.44742554 6.3825531 347.62742554 6.3825531 329.26742554 C0.4425531 329.26742554 -5.4974469 329.26742554 -11.6174469 329.26742554 C-25.88151373 326.39160561 -38.68766263 321.08233199 -49.6174469 311.26742554 C-50.43857971 310.53910522 -51.25971252 309.81078491 -52.10572815 309.06039429 C-64.77354697 297.16148708 -74.2857689 279.73308351 -74.87471581 262.03156853 C-74.88808569 260.54757096 -74.89097318 259.06345199 -74.88487244 257.57940674 C-74.88940355 256.75333927 -74.89393466 255.92727181 -74.89860308 255.07617199 C-74.91116948 252.33371245 -74.90963176 249.59145348 -74.90797424 246.84896851 C-74.91396445 244.87200162 -74.92077112 242.89503707 -74.92832947 240.91807556 C-74.94594905 235.56445372 -74.95068322 230.21089587 -74.95196104 224.85724783 C-74.95338577 221.50637878 -74.95766154 218.15552583 -74.96295547 214.8046608 C-74.98144416 203.0969261 -74.98962776 191.38923685 -74.98805237 179.68148804 C-74.98685211 168.79735434 -75.00793491 157.91341931 -75.03953969 147.02933586 C-75.06576408 137.66168444 -75.07641704 128.29409765 -75.07514155 118.92640984 C-75.07463362 113.34188922 -75.08022266 107.75754517 -75.10149765 102.17306137 C-75.12098341 96.91489524 -75.12093425 91.6570722 -75.10646439 86.39889336 C-75.10438779 84.47978776 -75.1090078 82.56066011 -75.1211853 80.64159203 C-75.24908063 59.07228441 -70.45032861 40.71320312 -55.6174469 24.26742554 C-55.02576721 23.58293335 -54.43408752 22.89844116 -53.82447815 22.19320679 C-40.03044783 7.22271333 -20.04696576 -0.06527692 0 0 Z M-33.9299469 46.51742554 C-44.78348589 60.42253926 -44.92063798 76.15239625 -44.87623596 92.96859741 C-44.87895208 94.71294805 -44.88251648 96.45729754 -44.88685608 98.2016449 C-44.8959085 102.90204032 -44.89246556 107.60234711 -44.88609791 112.30274391 C-44.88100065 117.24405769 -44.88573965 122.18536436 -44.88887024 127.12667847 C-44.89249909 135.42149199 -44.88773925 143.71626979 -44.87818909 152.01107788 C-44.86730664 161.57289032 -44.87083298 171.13461744 -44.8818419 180.69642782 C-44.89094567 188.93632276 -44.89218498 197.17619215 -44.88696456 205.41609049 C-44.88386181 210.32414554 -44.88338857 215.2321606 -44.89003754 220.14021301 C-44.89585551 224.75650931 -44.89173345 229.37269661 -44.88024902 233.98898125 C-44.87762608 235.67348996 -44.87832653 237.35800801 -44.88277435 239.04251289 C-44.9270117 257.51274104 -43.43058445 273.07810558 -30.0393219 287.07601929 C-20.66564762 295.55768262 -10.32488323 298.76561044 2.10520935 298.56039429 C3.09129684 298.55614944 4.07738434 298.5519046 5.09335327 298.54753113 C8.21087659 298.53087725 11.3277286 298.49325033 14.4450531 298.45492554 C16.57199682 298.43986151 18.69895078 298.42617613 20.82591248 298.41390991 C26.01191954 298.38358239 31.19649412 298.32483578 36.3825531 298.26742554 C36.3825531 308.82742554 36.3825531 319.38742554 36.3825531 330.26742554 C44.43781421 325.87364675 52.48203548 321.46474578 60.5075531 317.01742554 C61.60325623 316.41285522 62.69895935 315.80828491 63.8278656 315.18539429 C64.9416156 314.56793335 66.0553656 313.95047241 67.2028656 313.31430054 C68.31640411 312.71500229 69.42994263 312.11570404 70.57722473 311.49824524 C73.11312443 310.07949275 75.35300817 308.55142604 77.60658264 306.7205658 C91.06461465 296.41765954 106.88751196 297.95912522 122.96750355 298.2162149 C127.08527277 298.26988248 131.20291734 298.2617628 135.32096863 298.25944519 C143.1075479 298.26329845 150.89299165 298.31346535 158.67922187 298.38456184 C172.61787137 298.51145475 186.55664606 298.58158468 200.49585509 298.60019761 C205.37420954 298.60884653 210.25130708 298.64511604 215.12929583 298.7047056 C218.17383563 298.73735957 221.21822833 298.7493024 224.26292419 298.75643158 C225.66048068 298.76407521 227.05802456 298.78026373 228.45536041 298.8062458 C243.26414159 299.07302145 254.3389697 294.82502198 265.0544281 284.68539429 C277.73666656 271.25137366 277.68705951 253.88060446 277.64134216 236.56625366 C277.64405829 234.82190302 277.64762268 233.07755353 277.65196228 231.33320618 C277.6610147 226.63281076 277.65757177 221.93250396 277.65120411 217.23210716 C277.64610685 212.29079338 277.65084585 207.34948671 277.65397644 202.40817261 C277.65760529 194.11335908 277.65284545 185.81858128 277.64329529 177.52377319 C277.63241284 167.96196075 277.63593918 158.40023363 277.6469481 148.83842325 C277.65605187 140.59852832 277.65729118 132.35865893 277.65207076 124.11876059 C277.64896801 119.21070554 277.64849477 114.30269047 277.65514374 109.39463806 C277.66096171 104.77834177 277.65683965 100.16215447 277.64535522 95.54586983 C277.64273228 93.86136111 277.64343274 92.17684307 277.64788055 90.49233818 C277.69038923 72.74387452 276.53722452 56.83404259 263.64427185 43.30258179 C253.67448309 34.3314938 243.08103329 30.79399591 229.84571838 30.87974548 C228.32652072 30.87166718 228.32652072 30.87166718 226.77663219 30.86342567 C223.40832976 30.84920401 220.04042355 30.85623561 216.67210388 30.8633728 C214.2467772 30.85766621 211.82145321 30.85070083 209.39613342 30.84257507 C203.50725616 30.82651828 197.61847755 30.82453666 191.72959007 30.82978798 C186.93968415 30.83384042 182.14980968 30.83237341 177.35990524 30.82703972 C176.67643523 30.8262913 175.99296522 30.82554287 175.28878399 30.82477177 C173.9000121 30.82324019 172.51124021 30.82170184 171.12246834 30.82015681 C158.11812156 30.80644974 145.11383505 30.81185672 132.10948966 30.82334202 C120.23269661 30.83327157 108.3560594 30.82033539 96.47929038 30.79640783 C84.26120559 30.77197957 72.04319327 30.76241815 59.82508457 30.76906055 C52.97476027 30.77254464 46.12455576 30.77037461 39.27425003 30.75280952 C32.83091354 30.73649181 26.38780078 30.74132705 19.94446945 30.76011467 C17.58549302 30.7637929 15.22649445 30.76071455 12.86753845 30.75022888 C-5.88635813 30.6732585 -20.31427163 32.0529809 -33.9299469 46.51742554 Z M307.3825531 137.26742554 C307.38108654 137.91843011 307.37961998 138.56943468 307.37810898 139.24016666 C307.34091916 155.14318099 307.28174478 171.04594288 307.19865036 186.9487772 C307.15898511 194.6395505 307.12652953 202.33022334 307.11155701 210.02108765 C307.0984751 216.73112322 307.07134586 223.44093656 307.02794003 230.1508469 C307.00547065 233.69769651 306.98963356 237.24427355 306.99066925 240.79120064 C306.99013669 269.26904703 306.99013669 269.26904703 302.3825531 281.26742554 C302.09718185 282.01882309 301.81181061 282.77022064 301.51779175 283.54438782 C298.30878538 291.19665236 293.90050218 298.10030598 288.3825531 304.26742554 C287.72770935 305.01508179 287.0728656 305.76273804 286.3981781 306.53305054 C275.05497551 318.70422412 258.19548579 327.34480768 241.44033623 328.4639473 C238.00971083 328.55210033 234.58360003 328.58015308 231.15184021 328.58627319 C229.20403152 328.60134163 229.20403152 328.60134163 227.21687317 328.61671448 C223.68240718 328.64384026 220.14798065 328.65911169 216.61343837 328.67214251 C212.90984914 328.68784995 209.20633961 328.71461559 205.50280762 328.74017334 C198.50140077 328.78682707 191.49997871 328.82363573 184.49849659 328.85684621 C176.52257399 328.89516275 168.5467317 328.94454771 160.57087696 328.99483037 C144.17482681 329.09795066 127.77873197 329.1872753 111.3825531 329.26742554 C111.35193212 331.63601513 111.32974224 334.00420044 111.3122406 336.37289429 C111.29918884 337.69184692 111.28613708 339.01079956 111.27268982 340.36972046 C111.55266534 350.30262984 114.69107258 358.22084963 120.3825531 366.26742554 C120.82341248 366.90422241 121.26427185 367.54101929 121.7184906 368.19711304 C128.90906369 377.54901446 140.05292706 382.27449831 151.3825531 384.26742554 C153.05684764 384.33587868 154.73368978 384.3544193 156.40922546 384.33143616 C157.39808243 384.32099274 158.38693939 384.31054932 159.40576172 384.29978943 C160.47994858 384.28355026 161.55413544 384.2673111 162.66087341 384.25057983 C165.02595881 384.22448055 167.39105124 384.19901315 169.75614929 384.17408752 C171.01002693 384.15968313 172.26390457 384.14527874 173.5557785 384.13043785 C180.94126997 384.05706605 188.32712373 384.04186035 195.71292162 384.02136362 C203.500938 383.99916815 211.28721306 383.95519336 219.07444763 383.83895874 C225.2769416 383.74651959 231.47751353 383.70584003 237.68070483 383.72182399 C240.95027985 383.72845337 244.21450336 383.70423019 247.48342133 383.63257408 C266.46272447 383.23686194 279.0463152 387.11413554 294.89321899 397.62701607 C298.15260204 399.7748687 301.5035217 401.70131983 304.8981781 403.62680054 C307.81306293 405.34504844 310.72312686 407.07120371 313.6325531 408.79867554 C314.58645935 409.36070679 315.5403656 409.92273804 316.5231781 410.50180054 C317.75342712 411.23221558 317.75342712 411.23221558 319.00852966 411.97738647 C321.75306299 413.52871531 321.75306299 413.52871531 326.3825531 415.26742554 C326.3825531 405.03742554 326.3825531 394.80742554 326.3825531 384.26742554 C329.13083435 384.30223022 331.8791156 384.33703491 334.7106781 384.37289429 C337.41151392 384.3963788 340.11233779 384.41454455 342.81321716 384.43222046 C344.671343 384.44718458 346.52943427 384.46756326 348.38743591 384.4937439 C366.21711754 384.7384462 380.59581461 383.33896801 394.0544281 370.68539429 C406.8876378 357.35694328 407.53473052 341.61375557 407.52781677 324.03988647 C407.53081364 322.5128725 407.53421737 320.98585929 407.53799438 319.45884705 C407.5467853 315.33260158 407.54917043 311.20637688 407.54981017 307.08012295 C407.55052351 304.49579849 407.55266319 301.91147923 407.55530739 299.32715607 C407.56454484 290.29308236 407.56864432 281.25902335 407.56785583 272.22494507 C407.5672556 263.83337503 407.57780096 255.44186938 407.5935995 247.05031562 C407.6067197 239.82111301 407.61203785 232.59193133 407.61140043 225.36271691 C407.61114674 221.05598446 407.61392599 216.74930929 407.62457848 212.44258881 C407.63433513 208.38776074 407.63428738 204.33304383 407.62706184 200.27821159 C407.62602531 198.8001101 407.62832268 197.3220014 407.6344223 195.84391212 C407.7000379 178.82529295 406.21772042 163.4040413 394.3200531 150.32992554 C381.78808186 138.8867627 367.19177548 136.93027084 350.83958435 137.07211304 C348.96516914 137.07635788 348.96516914 137.07635788 347.05288696 137.08068848 C343.76990288 137.0899137 340.4871246 137.10780466 337.20420837 137.13009644 C333.83855169 137.15074965 330.47286459 137.15973134 327.10716248 137.16976929 C320.53221389 137.19170393 313.95740028 137.22508614 307.3825531 137.26742554 Z " fill="#000000" transform="translate(74.61744689941406,21.732574462890625)"/>
<path d="M0 0 C26.07 0 52.14 0 79 0 C79 10.23 79 20.46 79 31 C63.16 31 47.32 31 31 31 C31 39.25 31 47.5 31 56 C45.85 56 60.7 56 76 56 C76 66.23 76 76.46 76 87 C61.15 87 46.3 87 31 87 C31 95.58 31 104.16 31 113 C46.84 113 62.68 113 79 113 C79 123.23 79 133.46 79 144 C68.84733453 144.02255146 58.69468557 144.04091534 48.54200077 144.05181217 C43.82820267 144.05704089 39.11442253 144.06413834 34.40063477 144.07543945 C29.85544596 144.08626873 25.31027448 144.09227692 20.76507378 144.09487724 C19.02705042 144.09673142 17.28902806 144.10035189 15.55101204 144.10573006 C13.12521405 144.11294103 10.69948854 144.11399092 8.27368164 144.11352539 C7.54791931 144.11712067 6.82215698 144.12071594 6.07440186 144.12442017 C1.11405216 144.11405216 1.11405216 144.11405216 0 143 C-0.09648248 141.15238732 -0.12187318 139.3010419 -0.12025452 137.45091248 C-0.12162918 136.24631378 -0.12300385 135.04171509 -0.12442017 133.8006134 C-0.12088056 132.45358252 -0.11724575 131.10655188 -0.11352539 129.75952148 C-0.11324352 128.35052492 -0.11340125 126.94152821 -0.1139679 125.53253174 C-0.11425589 121.6959237 -0.10835894 117.85934666 -0.10139394 114.02274585 C-0.09516063 110.01753059 -0.09455662 106.0123147 -0.09336853 102.00709534 C-0.09025515 94.41747996 -0.08204167 86.82787892 -0.07201904 79.23826987 C-0.05877294 68.98607633 -0.05335805 58.73387889 -0.04751682 48.48167896 C-0.03810178 32.32110856 -0.01818291 16.16056842 0 0 Z " fill="#000000" transform="translate(91,115)"/>
<path d="M0 0 C1.92578125 1.74609375 1.92578125 1.74609375 3 3 C1.24363556 7.1289971 -1.53496812 10.40031868 -4.3125 13.875 C-4.78623047 14.47441406 -5.25996094 15.07382813 -5.74804688 15.69140625 C-8.77530556 19.50964498 -11.86717392 23.26799953 -15 27 C-18.43431486 26.28553261 -21.39123673 24.9842375 -24.5625 23.5 C-31.28036863 20.36438696 -36.56706368 19.23546941 -44 20 C-47.68763772 21.74677576 -49.37845057 23.03038288 -51.5625 26.4375 C-52.25247554 29.04556958 -52.25247554 29.04556958 -50.90234375 31.44921875 C-48.56715495 34.58038566 -46.51102754 35.67745131 -43 37.375 C-42.39696045 37.66753662 -41.7939209 37.96007324 -41.17260742 38.26147461 C-36.00526884 40.69411861 -30.68650848 42.64123887 -25.3125 44.5625 C-11.13168067 49.66904997 1.37253393 56.12390937 9.0625 69.8125 C13.20775159 79.34355292 14.23729398 90.08933686 11 100 C5.8529872 112.61335852 -1.22649983 121.13590873 -13.52734375 127.2578125 C-30.77465371 134.2604797 -49.29570041 132.84646858 -66.2109375 125.78125 C-81.29840025 118.98689592 -81.29840025 118.98689592 -84 112 C-83.57589844 111.5875 -83.15179688 111.175 -82.71484375 110.75 C-78.85941398 106.95388454 -75.24184296 103.03168086 -71.7109375 98.93359375 C-69.25809972 96.16155106 -66.64889006 93.58428299 -64 91 C-60.65693936 92.27130475 -57.61436972 93.75083344 -54.5 95.5 C-46.63357677 99.45079676 -37.55106283 101.26576908 -28.94140625 98.83984375 C-25.13562396 97.19347918 -21.88602195 94.7720439 -20 91 C-19.41585298 87.62693382 -19.41585298 87.62693382 -20 84 C-26.08199743 76.66582663 -37.38658321 73.93362175 -46.13745117 70.74780273 C-61.54862162 65.1262218 -73.06992641 58.89765804 -81 44 C-85.25472269 32.91456604 -84.46214161 22.43897018 -80 11.5625 C-74.06897895 -0.29954211 -63.95716409 -6.91534349 -51.69921875 -11.13671875 C-33.21166183 -15.45113277 -15.69924845 -9.69015716 0 0 Z " fill="#000000" transform="translate(284,127)"/>
</svg>
