<?xml version="1.0" encoding="UTF-8"?>
<svg version="1.1" xmlns="http://www.w3.org/2000/svg" width="512" height="512">
<path d="M0 0 C0.74350228 -0.00438225 1.48700456 -0.00876451 2.25303721 -0.01327956 C4.74606632 -0.02664052 7.23906008 -0.03284052 9.7321167 -0.03897095 C11.51953286 -0.04687451 13.30694744 -0.05514362 15.09436035 -0.06375122 C20.96936523 -0.08995812 26.84437716 -0.10528494 32.71942139 -0.11953735 C34.74604039 -0.12489898 36.77265934 -0.13027649 38.79927826 -0.13566971 C47.23707589 -0.15730306 55.67487163 -0.17603491 64.11268997 -0.1872921 C76.17788148 -0.20349703 88.24274918 -0.23658541 100.30781865 -0.29369295 C108.80404503 -0.33252526 117.30018532 -0.35194089 125.79649806 -0.35721266 C130.86308833 -0.36085006 135.92933315 -0.37269748 140.99582672 -0.4053154 C145.77300304 -0.43562788 150.54962915 -0.44162616 155.32688141 -0.42993164 C157.06819725 -0.42971278 158.80954035 -0.43785998 160.55076599 -0.45558548 C180.61428666 -0.6484956 196.46780825 4.80955131 211.36004639 18.7828064 C223.26789008 31.15962338 228.94675611 46.49890754 228.93182373 63.43173218 C228.93854095 64.53516968 228.94525818 65.63860718 228.95217896 66.77548218 C228.97109845 70.40427207 228.97507941 74.03287659 228.97723389 77.66171265 C228.98366344 80.19181392 228.99039192 82.72191444 228.99740601 85.25201416 C229.00936178 90.54599024 229.01317424 95.83989766 229.01190186 101.13388062 C229.01069839 107.24388368 229.0318525 113.35353471 229.06338918 119.46344864 C229.09272423 125.3581077 229.09987732 131.25265938 229.0986824 137.14739609 C229.10104242 139.64884763 229.1098884 142.1503018 229.12534714 144.6517067 C229.14493161 148.14638904 229.13919905 151.64016032 229.12713623 155.13485718 C229.13837524 156.16670135 229.14961426 157.19854553 229.16119385 158.26165771 C229.10880037 164.23174633 228.58482498 167.59105511 224.64129639 172.15390015 C220.82199467 175.78223678 217.75850633 176.46390473 212.64129639 176.65390015 C207.52408645 176.46390473 204.46059811 175.78223678 200.64129639 172.15390015 C196.2353765 166.90282072 196.06862513 162.83445867 196.12713623 156.2840271 C196.12001114 155.30595596 196.11288605 154.32788483 196.10554504 153.32017517 C196.08628313 150.09397096 196.09454279 146.86842397 196.10223389 143.6421814 C196.09232291 141.39023383 196.08038015 139.13829438 196.0664978 136.8863678 C196.03412749 130.9574642 196.02374441 125.02874522 196.01965332 119.09976196 C196.01090271 109.62857689 195.97518176 100.15754379 195.92747879 90.68648338 C195.91496362 87.39018879 195.91564623 84.09408865 195.91775513 80.79777527 C195.91116794 78.75543066 195.90416034 76.71308734 195.89666748 74.67074585 C195.90079147 73.76594482 195.90491547 72.8611438 195.90916443 71.92892456 C195.8425092 61.22150074 194.42942238 51.71414753 187.64129639 43.15390015 C179.25769013 34.94350889 169.23733336 33.03672384 157.79931641 33.02018738 C157.14772828 33.01792182 156.49614015 33.01565627 155.82480693 33.01332206 C153.66107919 33.00703762 151.497415 33.00780782 149.3336792 33.00863647 C147.77415894 33.00564148 146.21463941 33.00223816 144.65512085 32.99845886 C140.43178699 32.98964855 136.20847342 32.98728198 131.98513126 32.98664308 C129.34220483 32.9859308 126.6992835 32.9837931 124.05635834 32.98114586 C114.8236 32.97190171 105.59085607 32.96780974 96.35809326 32.96859741 C87.77225703 32.9691977 79.18648374 32.95865305 70.60066342 32.94285375 C63.21272273 32.92974661 55.82480253 32.92441486 48.43685031 32.92505282 C44.03178362 32.92530691 39.62677287 32.92250527 35.22171783 32.91187477 C31.07499635 32.90214042 26.92838366 32.90215092 22.78165817 32.9093914 C21.26724207 32.9104307 19.75281901 32.90811369 18.23841476 32.90203094 C5.58006843 32.85451596 -6.0715852 32.99639572 -16.35870361 41.15390015 C-25.64188527 50.63292952 -26.51260267 62.01990023 -26.49241638 74.64041138 C-26.49581472 76.20582511 -26.49581472 76.20582511 -26.4992817 77.80286336 C-26.50560227 81.29325933 -26.50479358 84.78361628 -26.50396729 88.27401733 C-26.50696 90.77933807 -26.51036279 93.28465835 -26.5141449 95.78997803 C-26.52206072 101.88544942 -26.52519908 107.98090656 -26.52575728 114.07638261 C-26.52623317 119.03369342 -26.52829158 123.99100105 -26.5314579 128.94831085 C-26.54026071 143.01764041 -26.5448779 157.08696235 -26.54412743 171.15629467 C-26.54406749 172.2930293 -26.54406749 172.2930293 -26.54400635 173.45272827 C-26.54394503 174.59085846 -26.54394503 174.59085846 -26.54388247 175.75198117 C-26.54347618 188.04345142 -26.55304237 200.33489101 -26.56714471 212.6263524 C-26.58152621 225.26129796 -26.58841391 237.89622858 -26.58755094 250.53118253 C-26.58721956 257.6190249 -26.58994042 264.70683513 -26.60072899 271.7946701 C-26.61081403 278.4628039 -26.61048054 285.13085872 -26.60321236 291.79899979 C-26.60216805 294.24224827 -26.60452021 296.68550101 -26.61057281 299.12874222 C-26.61831753 302.47239208 -26.6136314 305.8158093 -26.60594177 309.15945435 C-26.61108534 310.11872102 -26.6162289 311.07798769 -26.62152833 312.06632304 C-26.56678281 322.89132178 -25.22847221 332.49069639 -18.35870361 341.15390015 C-10.01221566 349.32794 -0.06736477 351.20150286 11.31097412 351.35922241 C12.59177353 351.37916763 13.87257294 351.39911285 15.19218445 351.41966248 C16.56975183 351.43664028 17.94732042 351.45351932 19.32489014 351.4703064 C20.74978699 351.49090703 22.17467816 351.51190425 23.5995636 351.53327942 C27.32963425 351.58817936 31.05975707 351.63772853 34.78991699 351.68612671 C38.6043557 351.73657767 42.41871967 351.79213992 46.23309326 351.84725952 C53.70243081 351.95444804 61.17183099 352.05597837 68.64129639 352.15390015 C68.63760921 351.46883078 68.63392204 350.78376141 68.63012314 350.07793236 C68.5417531 333.40215062 68.47557762 316.72644313 68.4340477 300.0504818 C68.41342987 291.98607342 68.38532431 283.92182143 68.33953857 275.85751343 C68.29964677 268.82795692 68.2738579 261.79851367 68.26494241 254.76884711 C68.25973157 251.04726681 68.24750089 247.32601052 68.21837616 243.60453415 C68.18611222 239.44815499 68.18533847 235.29233774 68.18719482 231.13583374 C68.17281372 229.90440643 68.15843262 228.67297913 68.14361572 227.40423584 C68.19507935 216.77445256 68.19507935 216.77445256 72.64129639 212.15390015 C76.91723634 208.85158025 79.65213685 207.65372026 85.04754639 207.65053558 C86.32374847 207.64010459 87.59995056 207.6296736 88.91482544 207.61892653 C90.32365138 207.62757399 91.73247503 207.63660059 93.14129639 207.64596558 C94.64363204 207.64135562 96.14596319 207.63500206 97.64828491 207.6270566 C101.77344085 207.61035295 105.8982268 207.61861423 110.02338409 207.63100147 C114.47335827 207.64004544 118.92326848 207.62608549 123.37322998 207.61508179 C132.08945106 207.59728499 140.80553444 207.60114172 149.52176094 207.61273235 C156.60491187 207.62176183 163.68802417 207.62299277 170.7711792 207.61863708 C171.77886541 207.61802415 172.78655163 207.61741122 173.82477379 207.61677971 C175.87179821 207.61550083 177.91882262 207.61420398 179.96584702 207.61288935 C199.1657973 207.60148015 218.36567122 207.61460259 237.56560898 207.63609082 C254.04400136 207.6539621 270.52228104 207.65085809 287.00067139 207.63241577 C306.13139706 207.61101507 325.26205578 207.60257882 344.39279175 207.61486483 C346.43233235 207.61613904 348.47187296 207.61739652 350.51141357 207.61863708 C352.01669648 207.61956274 352.01669648 207.61956274 353.55238914 207.62050709 C360.62793966 207.62396239 367.70344775 207.61812777 374.7789917 207.60871887 C383.40043904 207.59750641 392.02174069 207.60052309 400.64317131 207.62184185 C405.04291682 207.6323624 409.44241931 207.63645702 413.84216309 207.62324524 C417.86892826 207.61133623 421.89522489 207.61785895 425.92194748 207.63915545 C427.37946484 207.64362788 428.83702168 207.64134082 430.2945137 207.6316523 C432.27466397 207.619498 434.25492496 207.63435114 436.23504639 207.65053558 C437.33526123 207.65118499 438.43547607 207.6518344 439.56903076 207.65250349 C444.52845865 208.46188681 447.63451209 211.06534648 450.98455048 214.68746948 C453.37282868 219.68449452 453.19430654 224.14349758 453.14923096 229.61679077 C453.15547092 230.7774128 453.16171088 231.93803482 453.16813993 233.13382721 C453.1813194 236.34694148 453.17659663 239.55944968 453.16419506 242.77254868 C453.1551385 246.2409256 453.16911727 249.70922108 453.18011475 253.17758179 C453.19789817 259.96873798 453.19406084 266.75971731 453.18246418 273.55088043 C453.17342941 279.07034252 453.17220604 284.58975505 453.17655945 290.10922241 C453.17717238 290.89487973 453.17778531 291.68053704 453.17841682 292.49000216 C453.17969572 294.08606658 453.18099258 295.68213099 453.18230718 297.27819538 C453.19371246 312.24334419 453.18060012 327.20839498 453.15910572 342.17352772 C453.14123477 355.01338845 453.14433889 367.85310453 453.16278076 380.69296265 C453.18418842 395.60467663 453.19261383 410.51630471 453.18033171 425.42803192 C453.17905751 427.01821389 453.17780003 428.60839588 453.17655945 430.19857788 C453.17594235 430.980971 453.17532524 431.76336411 453.17468944 432.56946611 C453.17123622 438.08208815 453.17706427 443.59465569 453.18647766 449.10726929 C453.19769788 455.82564623 453.19465725 462.54383624 453.17335469 469.26219177 C453.16284441 472.68983243 453.15872167 476.11716147 453.17195129 479.5447998 C453.18285178 483.26051571 453.16920781 486.97535006 453.14923096 490.69100952 C453.15815384 491.77446907 453.16707673 492.85792862 453.17627001 493.97422028 C453.11484425 499.84845389 452.80814263 503.6486295 448.64129639 508.15390015 C444.3700393 511.4620855 441.62892107 512.65408094 436.23504639 512.65726471 C434.9588443 512.6676957 433.68264221 512.67812669 432.36776733 512.68887377 C430.95894139 512.6802263 429.55011774 512.67119971 428.14129639 512.66183472 C426.63896073 512.66644467 425.13662958 512.67279823 423.63430786 512.68074369 C419.50915193 512.69744734 415.38436597 512.68918606 411.25920868 512.67679882 C406.8092345 512.66775486 402.3593243 512.68171481 397.90936279 512.69271851 C389.19314172 512.7105153 380.47705833 512.70665858 371.76083183 512.69506794 C364.67768091 512.68603846 357.5945686 512.68480752 350.51141357 512.68916321 C349.50372736 512.68977614 348.49604115 512.69038907 347.45781898 512.69102058 C345.41079456 512.69229947 343.36377016 512.69359632 341.31674576 512.69491094 C322.11679548 512.70632014 302.91692155 512.6931977 283.7169838 512.67170948 C267.23859141 512.65383819 250.76031174 512.65694221 234.28192139 512.67538452 C215.15119572 512.69678522 196.02053699 512.70522147 176.88980103 512.69293547 C174.85026043 512.69166126 172.81071982 512.69040377 170.7711792 512.68916321 C169.26589629 512.68823755 169.26589629 512.68823755 167.73020363 512.6872932 C160.65465311 512.6838379 153.57914502 512.68967253 146.50360107 512.69908142 C137.88215373 512.71029389 129.26085209 512.7072772 120.63942146 512.68595845 C116.23967595 512.67543789 111.84017346 512.67134327 107.44042969 512.68455505 C103.41366452 512.69646406 99.38736789 512.68994134 95.36064529 512.66864485 C93.90312794 512.66417242 92.44557109 512.66645948 90.98807907 512.676148 C89.00792881 512.68830229 87.02766781 512.67344916 85.04754639 512.65726471 C83.94733154 512.6566153 82.8471167 512.65596589 81.71356201 512.6552968 C76.75487663 511.84603466 73.64889959 509.24042751 70.29467773 505.62347412 C67.90464816 500.60806468 68.11423386 496.12918943 68.18719482 490.64071655 C68.18661072 489.48891907 68.18602661 488.33712158 68.1854248 487.15042114 C68.18820655 483.35179273 68.21930471 479.55395362 68.25067139 475.75546265 C68.25813341 473.11845325 68.26382652 470.48143831 68.26782227 467.84442139 C68.28023476 461.6183587 68.31303258 455.3925783 68.35322022 449.16663969 C68.39799205 442.07598618 68.41993851 434.98531891 68.44000196 427.89455914 C68.48176702 413.31419413 68.5520852 398.73405109 68.64129639 384.15390015 C67.27185883 384.1638929 67.27185883 384.1638929 65.87475586 384.17408752 C57.22542945 384.2344687 48.57617494 384.28001093 39.92668533 384.30933666 C35.48104023 384.32492069 31.03557086 384.34602438 26.59002686 384.38021851 C22.29115854 384.41307343 17.99245811 384.43080762 13.69347382 384.43853188 C12.06220613 384.44402889 10.4309465 384.4547617 8.79975128 384.47109032 C-10.59243515 384.65729909 -26.9866996 380.075569 -41.2769165 366.49691772 C-51.27782564 356.44462525 -59.46200694 341.8803501 -59.49292469 327.32515812 C-59.49738253 326.34986025 -59.50184038 325.37456238 -59.50643331 324.36971003 C-59.50624895 323.30076343 -59.50606458 322.23181683 -59.50587463 321.13047791 C-59.50955132 319.9928379 -59.51322801 318.8551979 -59.51701611 317.68308395 C-59.52806281 313.85637558 -59.53189851 310.02969435 -59.53570557 306.20297241 C-59.54143752 303.46488716 -59.54860356 300.72680598 -59.55561829 297.98872375 C-59.57537266 289.76037441 -59.5854488 281.53202386 -59.59434608 273.30365673 C-59.59873172 269.42564702 -59.60409791 265.54763868 -59.60933495 261.66963005 C-59.62634819 248.7719339 -59.64084044 235.87423859 -59.64808369 222.97653294 C-59.64999349 219.63013775 -59.65191383 216.28374257 -59.65386963 212.93734741 C-59.65435337 212.10564732 -59.65483711 211.27394722 -59.65533551 210.4170441 C-59.66362858 196.95626349 -59.68895283 183.49557196 -59.72145031 170.03483022 C-59.75456698 156.20441726 -59.77253671 142.37404949 -59.77572793 128.54359668 C-59.77788905 120.78267102 -59.78657889 113.02187516 -59.8121891 105.26098824 C-59.83395939 98.64855688 -59.84191568 92.03628685 -59.83222232 85.42382372 C-59.82769536 82.05396627 -59.83167703 78.68470945 -59.84898376 75.31485367 C-59.97451245 49.41576541 -59.97451245 49.41576541 -55.35870361 39.15390015 C-54.97033483 38.24187615 -54.58196604 37.32985216 -54.1818285 36.39019108 C-47.4350936 21.15182033 -34.57347841 10.12558352 -19.35479736 3.9312439 C-16.70308757 2.94612135 -14.055828 2.00631385 -11.35870361 1.15390015 C-10.8007674 0.97636389 -10.24283119 0.79882763 -9.66798782 0.61591148 C-6.44967706 -0.02796598 -3.26819661 0.00234618 0 0 Z M100.64129639 240.15390015 C100.64129639 319.35390015 100.64129639 398.55390015 100.64129639 480.15390015 C206.24129639 480.15390015 311.84129639 480.15390015 420.64129639 480.15390015 C420.64129639 400.95390015 420.64129639 321.75390015 420.64129639 240.15390015 C315.04129639 240.15390015 209.44129639 240.15390015 100.64129639 240.15390015 Z " fill="#37004C" transform="translate(59.35870361328125,-0.153900146484375)"/>
<path d="M0 0 C3.72022075 2.96884612 5.80108398 5.72772559 6.421875 10.44140625 C6.44121094 11.80845703 6.44121094 11.80845703 6.4609375 13.203125 C6.48929687 14.10675781 6.51765625 15.01039063 6.546875 15.94140625 C5.40905255 23.2215414 -0.05885589 28.75304508 -4.6640625 34.203125 C-5.9101947 35.70439517 -7.15628862 37.20569712 -8.40234375 38.70703125 C-10.46202635 41.17146221 -12.5376979 43.61878812 -14.64453125 46.04296875 C-15.73701172 47.32880859 -15.73701172 47.32880859 -16.8515625 48.640625 C-17.47933594 49.35734375 -18.10710937 50.0740625 -18.75390625 50.8125 C-20.15072778 52.84627236 -20.15072778 52.84627236 -19.66430664 55.28393555 C-18.86110721 58.07461576 -17.94943115 59.48954342 -16.0703125 61.67578125 C-15.48725342 62.36599365 -14.90419434 63.05620605 -14.3034668 63.76733398 C-13.67996338 64.48864502 -13.05645996 65.20995605 -12.4140625 65.953125 C-11.13730935 67.46444708 -9.86257642 68.97747809 -8.58984375 70.4921875 C-7.96416504 71.23500977 -7.33848633 71.97783203 -6.69384766 72.74316406 C6.25030487 88.36137609 6.25030487 88.36137609 5.0859375 100.890625 C2.81806312 105.7752775 -0.02941 108.62275062 -4.9140625 110.890625 C-10.29741158 111.61530661 -14.93710239 111.90937808 -19.84765625 109.37890625 C-23.79656553 106.1745047 -26.81452775 102.54180236 -29.9765625 98.578125 C-30.57533203 97.84400391 -31.17410156 97.10988281 -31.79101562 96.35351562 C-34.56531591 92.92894123 -37.2270226 89.4809111 -39.72265625 85.84765625 C-40.44582031 84.87183594 -41.16898437 83.89601563 -41.9140625 82.890625 C-42.5740625 82.890625 -43.2340625 82.890625 -43.9140625 82.890625 C-45.68057108 84.95910086 -47.33699394 87.03725101 -48.9765625 89.203125 C-49.96938214 90.48749732 -50.96288112 91.77134476 -51.95703125 93.0546875 C-52.45380371 93.69954102 -52.95057617 94.34439453 -53.46240234 95.00878906 C-55.55070463 97.71592562 -57.65708644 100.40509283 -59.7890625 103.078125 C-60.46710938 103.93792969 -61.14515625 104.79773438 -61.84375 105.68359375 C-64.88230833 108.92281159 -67.38522222 110.6622249 -71.81640625 111.32421875 C-82.23300994 111.33762493 -82.23300994 111.33762493 -86.9140625 106.890625 C-91.32822091 102.24414246 -91.38164511 98.00269434 -91.4453125 91.890625 C-90.28169034 85.31958222 -84.81466528 80.18081498 -80.6640625 75.140625 C-79.80723877 74.08717896 -79.80723877 74.08717896 -78.93310547 73.01245117 C-76.40785836 69.90952617 -73.87195645 66.82261136 -71.25 63.80078125 C-70.52039063 62.94355469 -69.79078125 62.08632813 -69.0390625 61.203125 C-68.40226562 60.47738281 -67.76546875 59.75164062 -67.109375 59.00390625 C-65.67538479 56.94415165 -65.67538479 56.94415165 -66.15942383 54.49731445 C-66.97104916 51.69378042 -67.90177954 50.26688438 -69.79296875 48.0703125 C-70.6751709 47.02774292 -70.6751709 47.02774292 -71.57519531 45.96411133 C-72.20264648 45.23861084 -72.83009766 44.51311035 -73.4765625 43.765625 C-74.756051 42.24789925 -76.03340103 40.7283681 -77.30859375 39.20703125 C-78.23792725 38.10125732 -78.23792725 38.10125732 -79.18603516 36.97314453 C-90.62173515 23.19149421 -90.62173515 23.19149421 -91.03125 15.765625 C-90.23246174 9.5814578 -87.97795496 5.80350094 -83.3515625 1.515625 C-77.67659616 -1.16708636 -71.92716323 -1.15970217 -66.01171875 0.90234375 C-61.72781467 3.65203754 -58.98299979 7.17119745 -55.8515625 11.140625 C-55.25279297 11.87925781 -54.65402344 12.61789062 -54.03710938 13.37890625 C-51.26543697 16.8214873 -48.6083927 20.29454877 -46.10546875 23.9375 C-45.38230469 24.91203125 -44.65914063 25.8865625 -43.9140625 26.890625 C-43.2540625 26.890625 -42.5940625 26.890625 -41.9140625 26.890625 C-40.14755244 24.8221474 -38.49117495 22.74396725 -36.8515625 20.578125 C-35.85741617 19.29246947 -34.86261565 18.00731957 -33.8671875 16.72265625 C-33.37025391 16.0776416 -32.87332031 15.43262695 -32.36132812 14.76806641 C-14.49902207 -8.40351483 -14.49902207 -8.40351483 0 0 Z " fill="#9F85EB" transform="translate(394.9140625,273.109375)"/>
<path d="M0 0 C4.64880892 2.15837557 8.00431709 5.232086 10 10 C10.57551151 14.02771682 10.53353666 18.0191271 10.50390625 22.08203125 C10.51332748 23.25078293 10.52274872 24.41953461 10.53245544 25.623703 C10.56108635 29.35348068 10.564185 33.08262139 10.5625 36.8125 C10.56611567 40.53157411 10.57575438 44.25018402 10.60325623 47.96916199 C10.61994925 50.27974129 10.62299612 52.59047285 10.61024475 54.90107727 C10.65181504 61.30913566 11.07413881 67.19010205 14 73 C18.70627611 77.59148889 22.06914724 78.35499181 28.45703125 78.28125 C32.19180418 77.86818756 34.23941828 76.49125668 37 74 C40.59831805 69.16088262 41.11975731 64.47506134 41.1418457 58.57055664 C41.14888016 57.50917984 41.15591461 56.44780304 41.16316223 55.35426331 C41.16732651 54.21770798 41.17149078 53.08115265 41.17578125 51.91015625 C41.19897218 49.49282976 41.22308922 47.07551202 41.24804688 44.65820312 C41.28319874 40.85516437 41.31253539 37.05244929 41.32592773 33.24926758 C41.34139783 29.57333531 41.3815928 25.89834079 41.42578125 22.22265625 C41.42387283 21.08812515 41.42196442 19.95359406 41.41999817 18.78468323 C41.51661189 12.54803868 41.79489409 8.728989 46 4 C49.81930172 0.37166337 52.88279006 -0.31000458 58 -0.5 C64.51907353 -0.25795519 67.67855942 1.52532726 72.12304688 6.26318359 C75.49598954 11.49718998 74.57208327 18.17321089 74.53125 24.1640625 C74.53394955 25.56163807 74.53783582 26.95921181 74.54284668 28.35678101 C74.54873178 31.28377186 74.54021941 34.2102733 74.52148438 37.13720703 C74.49882149 40.85574197 74.51174177 44.57311375 74.53577423 48.291605 C74.55036874 51.17964104 74.5455625 54.06741081 74.53526306 56.95545578 C74.53135896 58.98248815 74.54334458 61.00953159 74.55578613 63.03652954 C74.40677511 77.93989311 69.78685466 88.86461066 59.6875 99.75 C49.12895319 109.74291038 37.58172077 112.51439781 23.46972656 112.41967773 C9.34733761 112.00889743 -1.72865726 106.162881 -11.40625 95.9375 C-20.63388917 84.71958572 -22.4743603 73.42654999 -22.43359375 59.234375 C-22.43816554 57.82814281 -22.44347405 56.42191284 -22.44947815 55.01568604 C-22.45835377 52.08751261 -22.45604662 49.15961281 -22.44604492 46.23144531 C-22.43450627 42.49006288 -22.45486819 38.74961749 -22.48396206 35.008358 C-22.50234374 32.11202065 -22.50202874 29.21590774 -22.49632454 26.31952667 C-22.49617186 24.94009324 -22.50217186 23.56064409 -22.51461601 22.18126678 C-22.61760996 8.90776879 -22.61760996 8.90776879 -18 4 C-12.72867143 -1.00776214 -6.89190982 -0.92775709 0 0 Z " fill="#9F85EC" transform="translate(214,272)"/>
<path d="M0 0 C4.64880892 2.15837557 8.00431709 5.232086 10 10 C10.57551151 14.02771682 10.53353666 18.0191271 10.50390625 22.08203125 C10.51332748 23.25078293 10.52274872 24.41953461 10.53245544 25.623703 C10.56108635 29.35348068 10.564185 33.08262139 10.5625 36.8125 C10.56611567 40.53157411 10.57575438 44.25018402 10.60325623 47.96916199 C10.61994925 50.27974129 10.62299612 52.59047285 10.61024475 54.90107727 C10.65181504 61.30913566 11.07413881 67.19010205 14 73 C18.70627611 77.59148889 22.06914724 78.35499181 28.45703125 78.28125 C32.19180418 77.86818756 34.23941828 76.49125668 37 74 C40.59831805 69.16088262 41.11975731 64.47506134 41.1418457 58.57055664 C41.14888016 57.50917984 41.15591461 56.44780304 41.16316223 55.35426331 C41.16732651 54.21770798 41.17149078 53.08115265 41.17578125 51.91015625 C41.19897218 49.49282976 41.22308922 47.07551202 41.24804688 44.65820312 C41.28319874 40.85516437 41.31253539 37.05244929 41.32592773 33.24926758 C41.34139783 29.57333531 41.3815928 25.89834079 41.42578125 22.22265625 C41.42387283 21.08812515 41.42196442 19.95359406 41.41999817 18.78468323 C41.51661189 12.54803868 41.79489409 8.728989 46 4 C49.81930172 0.37166337 52.88279006 -0.31000458 58 -0.5 C64.51907353 -0.25795519 67.67855942 1.52532726 72.12304688 6.26318359 C75.49598954 11.49718998 74.57208327 18.17321089 74.53125 24.1640625 C74.53394955 25.56163807 74.53783582 26.95921181 74.54284668 28.35678101 C74.54873178 31.28377186 74.54021941 34.2102733 74.52148438 37.13720703 C74.49882149 40.85574197 74.51174177 44.57311375 74.53577423 48.291605 C74.55036874 51.17964104 74.5455625 54.06741081 74.53526306 56.95545578 C74.53135896 58.98248815 74.54334458 61.00953159 74.55578613 63.03652954 C74.40677511 77.93989311 69.78685466 88.86461066 59.6875 99.75 C49.12895319 109.74291038 37.58172077 112.51439781 23.46972656 112.41967773 C9.34733761 112.00889743 -1.72865726 106.162881 -11.40625 95.9375 C-20.63388917 84.71958572 -22.4743603 73.42654999 -22.43359375 59.234375 C-22.43816554 57.82814281 -22.44347405 56.42191284 -22.44947815 55.01568604 C-22.45835377 52.08751261 -22.45604662 49.15961281 -22.44604492 46.23144531 C-22.43450627 42.49006288 -22.45486819 38.74961749 -22.48396206 35.008358 C-22.50234374 32.11202065 -22.50202874 29.21590774 -22.49632454 26.31952667 C-22.49617186 24.94009324 -22.50217186 23.56064409 -22.51461601 22.18126678 C-22.61760996 8.90776879 -22.61760996 8.90776879 -18 4 C-12.72867143 -1.00776214 -6.89190982 -0.92775709 0 0 Z " fill="#37004C" transform="translate(86,64)"/>
<path d="M0 0 C1.37045026 -0.00542487 2.74089468 -0.01254958 4.11132812 -0.02124023 C7.82214736 -0.03943355 11.53252041 -0.0324229 15.24334717 -0.01972389 C19.13229549 -0.00957537 23.02120638 -0.0189947 26.91015625 -0.02526855 C33.44017372 -0.03253959 39.97001005 -0.02297163 46.5 -0.00390625 C54.04255185 0.01786159 61.58467116 0.01080982 69.12721252 -0.01121187 C75.61063837 -0.02938147 82.09393423 -0.03191662 88.57737732 -0.0214572 C92.44635098 -0.01523078 96.31512153 -0.01436299 100.18408203 -0.02760315 C103.82206402 -0.03918392 107.45949 -0.03109613 111.09741211 -0.00802612 C113.06428265 -0.00024035 115.03120039 -0.01207597 116.99804688 -0.02453613 C127.73721866 0.0783295 127.73721866 0.0783295 132.5625 4.51757812 C136.19083663 8.33687985 136.87250458 11.40036819 137.0625 16.51757812 C136.87250458 21.63478806 136.19083663 24.6982764 132.5625 28.51757812 C126.80959292 33.81024048 120.62887603 33.08269404 113.125 33.03515625 C111.75454974 33.04058112 110.38410532 33.04770583 109.01367188 33.05639648 C105.30285264 33.0745898 101.59247959 33.06757915 97.88165283 33.05488014 C93.99270451 33.04473162 90.10379362 33.05415095 86.21484375 33.0604248 C79.68482628 33.06769584 73.15498995 33.05812788 66.625 33.0390625 C59.08244815 33.01729466 51.54032884 33.02434643 43.99778748 33.04636812 C37.51436163 33.06453772 31.03106577 33.06707287 24.54762268 33.05661345 C20.67864902 33.05038703 16.80987847 33.04951924 12.94091797 33.0627594 C9.30293598 33.07434017 5.66551 33.06625238 2.02758789 33.04318237 C0.06071735 33.0353966 -1.90620039 33.04723222 -3.87304688 33.05969238 C-14.61221866 32.95682675 -14.61221866 32.95682675 -19.4375 28.51757812 C-23.06583663 24.6982764 -23.74750458 21.63478806 -23.9375 16.51757812 C-23.74750458 11.40036819 -23.06583663 8.33687985 -19.4375 4.51757812 C-13.68459292 -0.77508423 -7.50387603 -0.04753779 0 0 Z " fill="#38004C" transform="translate(311.4375,415.482421875)"/>
<path d="M0 0 C4.9676098 2.30639026 7.38644324 5.24121464 10 10 C10.55999822 13.0171521 10.54747701 15.96906906 10.51757812 19.03125 C10.5245874 19.91981689 10.53159668 20.80838379 10.53881836 21.72387695 C10.55636698 24.6495729 10.54478669 27.57429489 10.53125 30.5 C10.53394581 32.53971542 10.53782898 34.57942959 10.54284668 36.61914062 C10.54873749 40.88944765 10.54019207 45.1594195 10.52148438 49.4296875 C10.49869526 54.89744751 10.51182055 60.36442211 10.53577423 65.83215332 C10.55024337 70.04270319 10.54562105 74.25306752 10.53526306 78.46362305 C10.53259887 80.47941176 10.53585469 82.49521743 10.54518127 84.51098633 C10.55536511 87.33069337 10.53982006 90.14913682 10.51757812 92.96875 C10.52567505 93.79802002 10.53377197 94.62729004 10.54211426 95.48168945 C10.46471664 100.79061306 9.47949599 103.76676987 6 108 C2.18069828 111.62833663 -0.88279006 112.31000458 -6 112.5 C-11.11720994 112.31000458 -14.18069828 111.62833663 -18 108 C-22.17073234 102.92579676 -22.57898777 99.25819792 -22.51757812 92.96875 C-22.5245874 92.08018311 -22.53159668 91.19161621 -22.53881836 90.27612305 C-22.55636698 87.3504271 -22.54478669 84.42570511 -22.53125 81.5 C-22.53394581 79.46028458 -22.53782898 77.42057041 -22.54284668 75.38085938 C-22.54873749 71.11055235 -22.54019207 66.8405805 -22.52148438 62.5703125 C-22.49869526 57.10255249 -22.51182055 51.63557789 -22.53577423 46.16784668 C-22.55024337 41.95729681 -22.54562105 37.74693248 -22.53526306 33.53637695 C-22.53259887 31.52058824 -22.53585469 29.50478257 -22.54518127 27.48901367 C-22.55536511 24.66930663 -22.53982006 21.85086318 -22.51757812 19.03125 C-22.52567505 18.20197998 -22.53377197 17.37270996 -22.54211426 16.51831055 C-22.46471664 11.20938694 -21.47949599 8.23323013 -18 4 C-12.72867143 -1.00776214 -6.89190982 -0.92775709 0 0 Z " fill="#38004C" transform="translate(214,64)"/>
<path d="M0 0 C0.95390625 -0.0038269 1.9078125 -0.00765381 2.890625 -0.01159668 C4.90105245 -0.01431036 6.91151553 -0.00698737 8.921875 0.00976562 C11.99038787 0.03118291 15.05655952 0.00994534 18.125 -0.015625 C20.08333848 -0.01298163 22.0416755 -0.00785645 24 0 C25.36898437 -0.01214539 25.36898437 -0.01214539 26.765625 -0.02453613 C32.34723968 0.05719316 35.57473138 0.80813314 40 4.53125 C43.62833663 8.35055172 44.31000458 11.41404006 44.5 16.53125 C44.31000458 21.64845994 43.62833663 24.71194828 40 28.53125 C34.73573631 32.96023965 30.57725694 33.12085225 24 33.0625 C22.56914062 33.06824036 22.56914062 33.06824036 21.109375 33.07409668 C19.09894755 33.07681036 17.08848447 33.06948737 15.078125 33.05273438 C12.00961213 33.03131709 8.94344048 33.05255466 5.875 33.078125 C3.91666152 33.07548163 1.9583245 33.07035645 0 33.0625 C-1.36898437 33.07464539 -1.36898437 33.07464539 -2.765625 33.08703613 C-8.34723968 33.00530684 -11.57473138 32.25436686 -16 28.53125 C-19.62833663 24.71194828 -20.31000458 21.64845994 -20.5 16.53125 C-20.31000458 11.41404006 -19.62833663 8.35055172 -16 4.53125 C-10.73573631 0.10226035 -6.57725694 -0.05835225 0 0 Z " fill="#38004C" transform="translate(212,415.46875)"/>
</svg>
