<?xml version="1.0" encoding="UTF-8"?>
<svg version="1.1" xmlns="http://www.w3.org/2000/svg" width="512" height="512">
<path d="M0 0 C6.89181969 5.64778331 13.17349235 12.03380336 19.45175171 18.34495544 C20.79565631 19.6896951 20.79565631 19.6896951 22.1667105 21.06160122 C24.62419029 23.52070818 27.07855709 25.98290076 29.53239179 28.44564426 C32.19029153 31.11204395 34.85117303 33.77546518 37.51171875 36.43922424 C42.11191192 41.04568892 46.71037518 45.65387448 51.3077507 50.26315117 C57.95798669 56.93042157 64.61198302 63.59392942 71.26707406 70.25635327 C82.07105327 81.07225315 92.87352011 91.88966189 103.67431641 102.70874023 C104.31956617 103.35508012 104.96481593 104.00142001 105.62961872 104.66734595 C114.8032928 113.85665826 123.97548248 123.04745081 133.14709528 132.23882038 C133.79416419 132.8872826 134.4412331 133.53574483 135.10791016 134.20385742 C135.75418634 134.85152714 136.40046253 135.49919686 137.06632285 136.16649293 C147.83431636 146.95750391 158.60615479 157.74466728 169.38116515 168.5286718 C176.02324497 175.17660695 182.66204406 181.82778547 189.29667516 188.4831546 C193.8364894 193.03665522 198.37988357 197.58656282 202.92614095 202.13363051 C205.54997048 204.75816527 208.17211215 207.3843321 210.78992081 210.0148735 C213.62462623 212.86329474 216.4669703 215.70396766 219.31015015 218.54393005 C220.13990431 219.38019202 220.96965848 220.21645399 221.82455671 221.07805723 C222.58573415 221.83586927 223.34691159 222.59368132 224.13115501 223.37445736 C225.11409399 224.3593486 225.11409399 224.3593486 226.11689031 225.36413664 C227.99634885 226.99682823 229.76996957 227.92840015 232 229 C233.44921875 230.83984375 233.44921875 230.83984375 234.6875 232.9375 C235.10386719 233.62714844 235.52023437 234.31679687 235.94921875 235.02734375 C238.61479682 240.03149588 238.33186058 245.0291799 238.4375 250.5625 C238.50614258 251.99045898 238.50614258 251.99045898 238.57617188 253.44726562 C238.73105526 263.33960002 234.33512787 269.74091384 227.69206429 276.81130028 C226.00507468 278.5200631 224.30723692 280.21816125 222.60061646 281.90731812 C221.65159102 282.86096226 220.70343771 283.81547495 219.75607383 284.77076972 C217.17161222 287.37181393 214.57496552 289.96037577 211.97599101 292.54690766 C209.16707136 295.34673376 206.36974004 298.15809897 203.57086182 300.96795654 C198.0950017 306.46155928 192.60843616 311.94434683 187.11789502 317.42327277 C182.65517946 321.87693935 178.19640223 326.33451358 173.74038315 330.79487991 C173.10517279 331.43070321 172.46996242 332.0665265 171.81550326 332.72161717 C170.52495939 334.01343999 169.23442448 335.30527176 167.94389842 336.59711237 C155.85631312 348.69609053 143.75652107 360.78280119 131.65248786 372.86532147 C121.27226745 383.22766346 110.90259112 393.60046001 100.54052734 403.98095703 C88.49688147 416.0460176 76.44676239 428.10455182 64.38626564 440.15276968 C63.09991819 441.43784298 61.81357907 442.72292461 60.52724838 444.00801468 C59.89439864 444.64024732 59.26154891 445.27247995 58.6095219 445.92387115 C54.15515522 450.37478739 49.70544022 454.83032153 45.25751114 459.28767014 C39.83674686 464.71966202 34.40889453 470.14445017 28.97187985 475.56017844 C26.19928508 478.32227452 23.42995937 481.08744685 20.66923904 483.86141586 C18.14007421 486.40253408 15.60179773 488.93416985 13.05606149 491.45868321 C11.7055557 492.80263232 10.36481517 494.1563726 9.02449429 495.51047933 C0.62878473 503.79852407 -6.89140366 507.3416819 -18.74707031 507.3059082 C-38.99622029 506.85890209 -53.38197332 485.77809798 -66.72054589 472.45415592 C-69.3711222 469.80753237 -72.02450399 467.16372357 -74.67744446 464.51947021 C-81.05777908 458.1587444 -87.4334067 451.79331097 -93.80840495 445.42723751 C-96.214396 443.0247641 -98.62070051 440.62260481 -101.02702088 438.22046125 C-111.65154998 427.61437069 -122.27473634 417.00693736 -132.89390278 406.39547729 C-135.48272572 403.8085638 -138.07155414 401.22165579 -140.66040039 398.63476562 C-141.30373222 397.99191754 -141.94706405 397.34906945 -142.60989078 396.68674111 C-153.0474566 386.25748806 -163.4935228 375.83679245 -173.94313548 365.41961122 C-184.69634145 354.69950535 -195.44197486 343.97185597 -206.18024033 333.23678398 C-212.19983559 327.21934925 -218.22265059 321.20521795 -224.25396156 315.19952393 C-229.38507683 310.09015462 -234.50926287 304.9739602 -239.62466321 299.8488555 C-242.23116405 297.23782356 -244.84072503 294.63006646 -247.45922089 292.03105927 C-250.304757 289.20651896 -253.13436359 286.36652115 -255.96284485 283.52490234 C-256.78249625 282.71622019 -257.60214765 281.90753803 -258.44663697 281.07435036 C-266.95154714 272.4741561 -273.68048824 263.55872688 -274.09375 251.1953125 C-273.58637446 234.91701386 -263.19942934 225.33959262 -252.33740234 214.62451172 C-250.83436325 213.11988848 -249.33263324 211.61395658 -247.83210754 210.10682678 C-243.77765846 206.042165 -239.70490991 201.99631506 -235.6282115 197.95398474 C-231.35844572 193.71441104 -227.10501122 189.45851103 -222.84951782 185.20462036 C-215.70916214 178.07163324 -208.55765767 170.94998826 -201.3984375 163.8359375 C-192.20584029 154.70122064 -183.03196996 145.54793184 -173.86382103 136.38868523 C-165.97679927 128.50961733 -158.08127495 120.63908571 -150.18436861 112.76992655 C-147.64691432 110.24066924 -145.1106334 107.71023975 -142.57450485 105.17965317 C-138.59526661 101.21019417 -134.61076739 97.24609029 -130.62209129 93.28611565 C-129.15784633 91.8309204 -127.69528265 90.37403122 -126.23451042 88.91534996 C-124.24396638 86.92829452 -122.24740572 84.94749157 -120.24911499 82.9682312 C-119.37975848 82.09627525 -119.37975848 82.09627525 -118.49283922 81.20670402 C-115.25534554 78.01550647 -112.57549001 75.38229272 -107.99205017 74.70195007 C-100.15195599 75.07785467 -96.21590414 79.72178289 -91.00390625 85.14453125 C-90.08915024 86.06586349 -89.17439423 86.98719574 -88.23191833 87.93644714 C-86.30437311 89.87920753 -84.39042813 91.83407143 -82.48657227 93.80004883 C-80.05033298 96.3156564 -77.59284002 98.80904274 -75.12631321 101.29492664 C-72.76588402 103.67532471 -70.41586667 106.06580207 -68.06640625 108.45703125 C-67.18626358 109.35194778 -66.30612091 110.24686432 -65.39930725 111.16889954 C-64.58763596 112.0062413 -63.77596466 112.84358307 -62.93969727 113.70629883 C-62.22515884 114.44052567 -61.51062042 115.1747525 -60.77442932 115.93122864 C-57.16440302 120.1400855 -56.6922684 123.33932272 -56.796875 128.7265625 C-57 131 -57 131 -58 134.1875 C-60.96987514 145.51014897 -59.10768281 156.58275928 -53.4921875 166.72265625 C-48.21401807 174.86085703 -41.14546522 180.0561857 -32.7265625 184.6640625 C-29.741731 186.97359276 -28.18469927 189.7840405 -27.61968327 193.50379848 C-27.61725337 194.39106656 -27.61482347 195.27833464 -27.61231995 196.19248962 C-27.60241531 197.21721878 -27.59251068 198.24194794 -27.58230591 199.29772949 C-27.58680756 200.41111694 -27.5913092 201.52450439 -27.59594727 202.67163086 C-27.58908401 203.85265884 -27.58222076 205.03368683 -27.57514954 206.25050354 C-27.56000132 209.48202615 -27.55838291 212.71318651 -27.56409192 215.94472957 C-27.5671866 218.64598651 -27.56108821 221.34719146 -27.55505317 224.04844099 C-27.54101551 230.42288178 -27.54256274 236.79718853 -27.55395508 243.17163086 C-27.56543483 249.73998438 -27.55136173 256.30792952 -27.5245586 262.87622923 C-27.50238129 268.5231154 -27.49576878 274.16987356 -27.50163502 279.81680018 C-27.5050011 283.18614741 -27.50261323 286.55523291 -27.48538399 289.92454338 C-27.47051524 293.68299659 -27.48112239 297.44054966 -27.49829102 301.19897461 C-27.48378906 302.86601944 -27.48378906 302.86601944 -27.46899414 304.56674194 C-27.52745038 310.6747156 -27.84937649 314.38539898 -32 319 C-34.515625 320.6171875 -34.515625 320.6171875 -37.25 321.875 C-48.20227124 327.55503428 -53.38429569 335.80189997 -58 347 C-60.74301154 357.41387521 -59.29512445 368.2441126 -55 378 C-52.98422022 381.35793188 -50.7009815 384.17145675 -48 387 C-47.40316406 387.63679688 -46.80632812 388.27359375 -46.19140625 388.9296875 C-38.56155099 396.32160548 -28.81778549 399.5298079 -18.375 400.25 C-6.89656608 400.03094592 3.15101883 395.51210343 11.6875 388 C20.22056166 378.96022447 23.34700499 367.42654301 23.2109375 355.34375 C22.51560776 344.3214859 17.08790747 334.23287146 9.1328125 326.65234375 C5.58014774 323.90000456 1.65085575 321.84371936 -2.328125 319.7734375 C-5.5491287 317.63551984 -6.44222514 316.55699072 -8 313 C-8.45100624 309.20255407 -8.41989888 305.42422322 -8.40405273 301.60375977 C-8.41434761 299.87610886 -8.41434761 299.87610886 -8.42485046 298.11355591 C-8.44315267 294.30604731 -8.4392759 290.4989494 -8.43359375 286.69140625 C-8.43815386 284.04491542 -8.44345892 281.39842578 -8.44947815 278.75193787 C-8.45950375 273.20462109 -8.45621208 267.65742093 -8.44604492 262.11010742 C-8.43456534 255.70534469 -8.44863816 249.30100077 -8.4754414 242.89629322 C-8.50029492 236.72555559 -8.5027722 230.55501077 -8.49632454 224.38422966 C-8.49617109 221.76276897 -8.50223443 219.1413003 -8.51461601 216.51986885 C-8.52948751 212.85480693 -8.51887568 209.19066774 -8.50170898 205.52563477 C-8.51137695 204.44232376 -8.52104492 203.35901276 -8.53100586 202.24287415 C-8.47155724 196.18380311 -8.05720155 192.6099927 -4 188 C-0.58542996 185.40963652 2.83282171 185.56891259 7 186 C12.41889641 189.06517074 16.55104511 193.2602835 20.91796875 197.65234375 C21.65702957 198.38949112 22.39609039 199.12663849 23.157547 199.88612366 C24.71222673 201.43944738 26.2644036 202.99527973 27.81420898 204.5534668 C30.18318 206.93316045 32.56264692 209.30198122 34.94335938 211.66992188 C36.45637097 213.18425487 37.96876215 214.69920803 39.48046875 216.21484375 C40.18987106 216.9201976 40.89927338 217.62555145 41.63017273 218.35227966 C49.80702463 226.6071054 49.80702463 226.6071054 50.3125 232.875 C50.29533732 235.60958665 49.81137187 237.6198838 49.00390625 240.2734375 C45.84935626 251.98332347 47.6672784 263.2079967 53.47265625 273.6484375 C59.02877399 282.39636756 66.98444241 288.11830666 76.81640625 291.33984375 C89.71329909 294.01416877 101.38564596 292.12924893 112.6875 285.375 C122.78464915 278.1549955 127.93296765 268.03854949 130 256 C131.14248499 245.36177909 128.07970211 234.66661509 121.74609375 226.05859375 C114.33842309 217.32516548 105.44340164 211.79824883 94 210 C87.1508134 209.44523722 81.37459141 210.14308665 74.8984375 212.44140625 C70.17425866 213.3518612 65.44296452 213.45737523 61.19726562 210.92456055 C59.36846414 209.39581359 57.71947427 207.77620279 56.0625 206.0625 C55.41788818 205.42296387 54.77327637 204.78342773 54.10913086 204.12451172 C52.61606899 202.63979478 51.13107411 201.14694043 49.65234375 199.64794922 C47.13683224 197.13660553 44.58022114 194.6789824 42.00245667 192.23210144 C39.60547973 189.95171613 37.22711412 187.65245886 34.85128784 185.35006714 C33.66509372 184.20612795 32.47284328 183.06843354 31.27444458 181.93728638 C20.43033673 171.66868113 20.43033673 171.66868113 19.65625 166.00390625 C19.73235515 162.9106002 20.24423962 160.1816283 21.4375 157.3125 C25.05527421 146.59255153 23.57211315 135.48769871 18.78125 125.4453125 C12.7559468 114.4323972 3.91456038 108.33297987 -7.8359375 104.3828125 C-11.15064138 103.79645694 -14.4576277 103.81559776 -17.8125 103.8125 C-18.49892578 103.80025391 -19.18535156 103.78800781 -19.89257812 103.77539062 C-24.59515068 103.76204368 -28.47868577 104.5830331 -33 106 C-37.01466566 106.74737598 -40.41926548 106.96017272 -44 104.78515625 C-46.13031269 102.95978751 -48.05812678 101.02489011 -50 99 C-50.81726563 98.20464844 -51.63453125 97.40929687 -52.4765625 96.58984375 C-56.21658191 92.93456799 -59.82013912 89.22955382 -63.2265625 85.26171875 C-68.09505116 79.65264527 -73.44980022 74.53754537 -78.76757812 69.359375 C-79.54166016 68.59625 -80.31574219 67.833125 -81.11328125 67.046875 C-81.81235596 66.36463867 -82.51143066 65.68240234 -83.23168945 64.97949219 C-85.98390319 61.89859352 -86.91794905 59.73845852 -87.375 55.625 C-86.51734088 47.33429513 -79.08911647 41.78262665 -73.484375 36.18359375 C-72.55457825 35.24951187 -71.62478149 34.31542999 -70.66680908 33.3530426 C-68.70329452 31.38209513 -66.73598822 29.41502918 -64.76611328 27.45043945 C-62.25849074 24.94860349 -59.76240573 22.43560071 -57.26931381 19.91929531 C-54.86881106 17.50040337 -52.45723323 15.09266498 -50.046875 12.68359375 C-48.71677399 11.33967812 -48.71677399 11.33967812 -47.35980225 9.96861267 C-34.61749995 -2.68002518 -16.95459039 -10.24975215 0 0 Z " fill="#2F3B42" transform="translate(274,4)"/>
</svg>
