<?xml version="1.0" encoding="UTF-8"?>
<svg version="1.1" xmlns="http://www.w3.org/2000/svg" width="512" height="512">
<path d="M0 0 C0.72056701 -0.00235223 1.44113401 -0.00470446 2.18353638 -0.00712797 C4.61075276 -0.01381275 7.03791553 -0.0133599 9.46514034 -0.01294994 C11.21791873 -0.0162489 12.97069636 -0.01997453 14.72347301 -0.02409142 C19.55027045 -0.03411603 24.37705546 -0.03782896 29.20386183 -0.04048073 C34.40582822 -0.04438243 39.60778474 -0.05396088 44.80974483 -0.0626936 C57.37776028 -0.08246204 69.94577653 -0.0925248 82.51380363 -0.10142139 C88.43128808 -0.10580375 94.34877164 -0.11117071 100.26625538 -0.11641026 C119.93571347 -0.13342308 139.605171 -0.14791739 159.27463531 -0.155159 C164.3797172 -0.15706891 169.48479908 -0.15898924 174.58988094 -0.16094494 C175.85873542 -0.16142868 177.12758989 -0.16191242 178.43489449 -0.16241082 C198.99079097 -0.17071161 219.54662926 -0.19604914 240.10250033 -0.22852562 C261.20340281 -0.26159158 282.30427571 -0.27960735 303.40520424 -0.28280324 C315.25394036 -0.28496878 327.10259164 -0.293724 338.95130253 -0.31926441 C349.04203125 -0.34096507 359.13265453 -0.34902492 369.22340394 -0.33929763 C374.37107927 -0.3347511 379.51853699 -0.33665986 384.66618252 -0.35605907 C389.38221712 -0.37367808 394.09787517 -0.37270315 398.8139137 -0.35716178 C400.51654036 -0.35478381 402.219193 -0.35911911 403.92177994 -0.37099043 C418.23921201 -0.46460482 429.96023081 1.94669383 440.82303524 11.91156483 C448.38148933 19.87726321 452.00468025 29.40374348 452.01975632 40.24868584 C452.02210855 40.96925284 452.02446078 41.68981985 452.02688429 42.43222222 C452.03356907 44.85943859 452.03311622 47.28660137 452.03270626 49.71382618 C452.03600521 51.46660457 452.03973085 53.21938219 452.04384774 54.97215885 C452.05387235 59.79895629 452.05758528 64.62574129 452.06023705 69.45254767 C452.06413875 74.65451405 452.0737172 79.85647058 452.08244991 85.05843067 C452.10221836 97.62644611 452.11228112 110.19446236 452.1211777 122.76248947 C452.12556007 128.67997392 452.13092702 134.59745747 452.13616657 140.51494122 C452.1531794 160.1843993 452.16767371 179.85385683 452.17491531 199.52332115 C452.17682523 204.62840304 452.17874556 209.73348491 452.18070126 214.83856678 C452.181185 216.10742125 452.18166874 217.37627572 452.18216714 218.68358033 C452.19046793 239.23947681 452.21580545 259.7953151 452.24828193 280.35118616 C452.2813479 301.45208864 452.29936367 322.55296155 452.30255955 343.65389007 C452.3047251 355.5026262 452.31348031 367.35127748 452.33902073 379.19998837 C452.36072139 389.29071709 452.36878124 399.38134036 452.35905395 409.47208977 C452.35450742 414.6197651 452.35641617 419.76722283 452.37581539 424.91486835 C452.3934344 429.63090295 452.39245947 434.346561 452.3769181 439.06259953 C452.37454012 440.76522619 452.37887543 442.46787884 452.39074675 444.17046577 C452.48436113 458.48789785 450.07306249 470.20891665 440.10819149 481.07172108 C432.1424931 488.63017517 422.61601283 492.25336609 411.77107048 492.26844215 C411.05050347 492.27079438 410.32993647 492.27314661 409.5875341 492.27557012 C407.16031772 492.2822549 404.73315495 492.28180206 402.30593014 492.2813921 C400.55315175 492.28469105 398.80037412 492.28841668 397.04759747 492.29253358 C392.22080003 492.30255818 387.39401502 492.30627111 382.56720865 492.30892289 C377.36524226 492.31282458 372.16328574 492.32240303 366.96132565 492.33113575 C354.3933102 492.35090419 341.82529395 492.36096696 329.25726685 492.36986354 C323.3397824 492.37424591 317.42229884 492.37961286 311.5048151 492.38485241 C291.83535701 492.40186524 272.16589948 492.41635955 252.49643517 492.42360115 C247.39135328 492.42551107 242.2862714 492.4274314 237.18118954 492.42938709 C235.91233507 492.42987083 234.64348059 492.43035457 233.33617599 492.43085297 C212.78027951 492.43915376 192.22444122 492.46449129 171.66857015 492.49696777 C150.56766767 492.53003374 129.46679477 492.54804951 108.36586624 492.55124539 C96.51713012 492.55341094 84.66847884 492.56216615 72.81976795 492.58770657 C62.72903923 492.60940722 52.63841595 492.61746708 42.54766654 492.60773978 C37.39999121 492.60319325 32.25253349 492.60510201 27.10488796 492.62450123 C22.38885336 492.64212024 17.67319531 492.6411453 12.95715678 492.62560394 C11.25453012 492.62322596 9.55187748 492.62756126 7.84929054 492.63943259 C-6.46814153 492.73304697 -18.18916033 490.32174833 -29.05196476 480.35687733 C-36.61041885 472.39117894 -40.23360977 462.86469867 -40.24868584 452.01975632 C-40.25103807 451.29918931 -40.2533903 450.57862231 -40.25581381 449.83621994 C-40.26249858 447.40900356 -40.26204574 444.98184078 -40.26163578 442.55461597 C-40.26493473 440.80183759 -40.26866037 439.04905996 -40.27277726 437.2962833 C-40.28280186 432.46948586 -40.2865148 427.64270086 -40.28916657 422.81589448 C-40.29306827 417.6139281 -40.30264672 412.41197158 -40.31137943 407.21001148 C-40.33114788 394.64199604 -40.34121064 382.07397979 -40.35010722 369.50595269 C-40.35448959 363.58846824 -40.35985654 357.67098468 -40.36509609 351.75350094 C-40.38210892 332.08404285 -40.39660323 312.41458532 -40.40384483 292.745121 C-40.40575475 287.64003912 -40.40767508 282.53495724 -40.40963078 277.42987537 C-40.41011452 276.1610209 -40.41059826 274.89216643 -40.41109665 273.58486182 C-40.41939745 253.02896535 -40.44473497 232.47312706 -40.47721145 211.91725599 C-40.51027742 190.81635351 -40.52829319 169.71548061 -40.53148907 148.61455208 C-40.53365462 136.76581596 -40.54240983 124.91716467 -40.56795025 113.06845379 C-40.5896509 102.97772507 -40.59771076 92.88710179 -40.58798347 82.79635238 C-40.58343694 77.64867705 -40.58534569 72.50121932 -40.60474491 67.3535738 C-40.62236392 62.6375392 -40.62138899 57.92188115 -40.60584762 53.20584262 C-40.60346964 51.50321596 -40.60780495 49.80056331 -40.61967627 48.09797638 C-40.71329065 33.7805443 -38.30199201 22.05952551 -28.33712101 11.19672108 C-20.37142262 3.63826698 -10.84494235 0.01507606 0 0 Z " fill="#68217A" transform="translate(50.11446475982666,9.865778923034668)"/>
<path d="M0 0 C1.03020264 0.39251953 2.06040527 0.78503906 3.12182617 1.18945312 C4.16563446 1.58191223 4.16563446 1.58191223 5.23052979 1.9822998 C7.78401549 2.97565447 10.2968133 4.04321112 12.81323242 5.12695312 C13.75375961 5.52591797 14.6942868 5.92488281 15.66331482 6.3359375 C18.67295619 7.61434504 21.67864994 8.90175484 24.68432617 10.18945312 C26.64696494 11.02468062 28.60985354 11.8593213 30.57299805 12.69335938 C43.43469947 18.16373155 56.27522422 23.68376657 69.12182617 29.18945312 C69.12182617 110.69945312 69.12182617 192.20945312 69.12182617 276.18945312 C34.45114232 291.21341613 34.45114232 291.21341613 22.37182617 296.25195312 C21.09962821 296.78500701 19.82749339 297.3182116 18.55541992 297.8515625 C16.15759842 298.85629113 13.75706589 299.85335573 11.35424805 300.84619141 C9.28073237 301.70785933 7.21359015 302.58512474 5.1550293 303.48193359 C4.27266602 303.85850098 3.39030273 304.23506836 2.48120117 304.62304688 C1.35149902 305.11695923 1.35149902 305.11695923 0.19897461 305.62084961 C-2.32462519 306.31166578 -3.42154763 306.05174076 -5.87817383 305.18945312 C-7.63143635 303.8081274 -7.63143635 303.8081274 -9.42512512 302.00999451 C-10.11046829 301.33022049 -10.79581146 300.65044647 -11.50192261 299.95007324 C-12.24330475 299.19947632 -12.98468689 298.44887939 -13.74853516 297.67553711 C-14.537668 296.88844864 -15.32680084 296.10136017 -16.1398468 295.29042053 C-18.75395117 292.67933059 -21.35713521 290.05763399 -23.96020508 287.43554688 C-25.77559558 285.61709825 -27.59157788 283.79924024 -29.40812683 281.98194885 C-33.21986777 278.16559976 -37.02683293 274.34458639 -40.82958984 270.51928711 C-45.69132628 265.62878729 -50.56218239 260.74747992 -55.4360857 255.86910915 C-59.19020874 252.11141441 -62.94089371 248.35029756 -66.69086266 244.58845711 C-68.48486597 242.78877534 -70.279326 240.98954872 -72.0742588 239.19079399 C-74.59198393 236.66614671 -77.10630709 234.13816084 -79.61962891 231.60913086 C-80.35493835 230.87270355 -81.0902478 230.13627625 -81.84783936 229.37753296 C-85.81790824 225.37478956 -89.62493595 221.28497873 -93.29072189 217.0010767 C-96.08965451 213.80689349 -99.10991981 210.8349609 -102.12426758 207.84570312 C-102.78024429 207.19114136 -103.43622101 206.53657959 -104.11207581 205.86218262 C-106.17757528 203.80221489 -108.24654978 201.74577946 -110.31567383 199.68945312 C-111.72931817 198.28083263 -113.14273169 196.87198045 -114.5559082 195.46289062 C-117.99400532 192.0357318 -121.43522039 188.61173294 -124.87817383 185.18945312 C-128.2241221 186.41127601 -130.85993258 187.72804483 -133.63598633 189.95507812 C-134.33377197 190.5079248 -135.03155762 191.06077148 -135.75048828 191.63037109 C-136.49387451 192.22736816 -137.23726074 192.82436523 -138.00317383 193.43945312 C-144.31742195 198.43283403 -150.68910205 203.31744685 -157.19067383 208.06445312 C-163.98020777 213.0295361 -170.69793632 218.07832468 -177.37817383 223.18945312 C-179.1280082 224.52040007 -180.8780078 225.85112983 -182.62817383 227.18164062 C-186.189684 229.89131199 -189.72622759 232.63030287 -193.25317383 235.38476562 C-194.9609946 236.69532966 -196.66930797 238.00525209 -198.37817383 239.31445312 C-199.55283203 240.24837891 -199.55283203 240.24837891 -200.7512207 241.20117188 C-201.48405273 241.75675781 -202.21688477 242.31234375 -202.97192383 242.88476562 C-203.60807617 243.37992676 -204.24422852 243.87508789 -204.8996582 244.38525391 C-206.87817383 245.18945312 -206.87817383 245.18945312 -209.10796642 244.42013359 C-210.02213487 244.01400904 -210.93630331 243.60788448 -211.87817383 243.18945312 C-212.86959287 242.75487352 -213.86101191 242.32029392 -214.88247395 241.87254524 C-236.10716101 231.76860187 -236.10716101 231.76860187 -240.40908432 221.55464935 C-242.83830134 212.08141486 -242.0689456 201.93902346 -241.61581016 192.26728201 C-241.44515017 188.00044092 -241.43102711 183.73289196 -241.39912415 179.46316528 C-241.31571413 171.40534397 -241.09497578 163.35760191 -240.82268792 155.30419075 C-240.51919193 146.12521358 -240.37204115 136.9457121 -240.23691118 127.76295447 C-239.95587474 108.89943787 -239.48208789 90.04525947 -238.87817383 71.18945312 C-234.82610772 69.73331325 -230.76937649 68.29128936 -226.70776367 66.86206055 C-225.32716853 66.37403848 -223.94791445 65.882205 -222.57006836 65.38647461 C-220.58764648 64.67397475 -218.60078308 63.97538599 -216.61254883 63.27929688 C-215.41855469 62.85511475 -214.22456055 62.43093262 -212.99438477 61.99389648 C-209.97913093 61.21551499 -208.69752831 61.02197596 -205.87817383 62.18945312 C-204.01318359 63.33422852 -204.01318359 63.33422852 -202.06958008 64.78710938 C-201.33352539 65.33302734 -200.5974707 65.87894531 -199.83911133 66.44140625 C-199.04762695 67.03888672 -198.25614258 67.63636719 -197.44067383 68.25195312 C-196.60665039 68.87392578 -195.77262695 69.49589844 -194.91333008 70.13671875 C-187.81064632 75.44787737 -180.76436985 80.83392856 -173.72045898 86.22265625 C-167.20401346 91.2015135 -160.62690205 96.0906601 -154.01367188 100.93994141 C-144.91389494 107.61675759 -135.8960953 114.402696 -126.87817383 121.18945312 C-123.88276603 119.84464172 -121.80048301 118.35848252 -119.48980713 116.03486633 C-118.83956573 115.38592911 -118.18932434 114.73699188 -117.51937866 114.06838989 C-116.81697052 113.35722015 -116.11456238 112.64605042 -115.39086914 111.91333008 C-114.26810074 110.78859032 -114.26810074 110.78859032 -113.12265015 109.64112854 C-110.64590926 107.15789035 -108.17621854 104.66775564 -105.70629883 102.17773438 C-103.98291151 100.44807469 -102.25900672 98.71893045 -100.53460693 96.99028015 C-95.98948249 92.43184032 -91.44994731 87.86787806 -86.9119873 83.30230713 C-79.66407199 76.01132703 -72.40955172 68.72693532 -65.15163422 61.44591331 C-62.623424 58.90752907 -60.09868603 56.36572918 -57.57427979 53.82356262 C-56.01065783 52.25310611 -54.44692263 50.68276233 -52.88305664 49.11254883 C-52.18874542 48.41150024 -51.4944342 47.71045166 -50.77908325 46.98815918 C-46.85963815 43.05973397 -42.82475057 39.33895436 -38.62333679 35.71408367 C-36.6363584 33.97819538 -34.77163478 32.16041384 -32.9440918 30.2578125 C-32.28335663 29.57440796 -31.62262146 28.89100342 -30.94186401 28.18688965 C-30.25826813 27.4761731 -29.57467224 26.76545654 -28.87036133 26.03320312 C-27.37517337 24.50106865 -25.87905259 22.96984405 -24.38208008 21.43945312 C-22.0516736 19.05324331 -19.7271793 16.66236621 -17.41772461 14.25585938 C-15.16789669 11.91546936 -12.89660369 9.59787199 -10.62036133 7.28320312 C-9.93271698 6.55629272 -9.24507263 5.82938232 -8.53659058 5.08044434 C-3.72921236 0.24547195 -3.72921236 0.24547195 0 0 Z " fill="#FEFDFE" transform="translate(340.878173828125,102.810546875)"/>
<path d="M0 0 C0 40.26 0 80.52 0 122 C-7.86504838 117.50568664 -7.86504838 117.50568664 -10.953125 115.0390625 C-11.64446533 114.49266113 -12.33580566 113.94625977 -13.0480957 113.38330078 C-13.77472412 112.80306152 -14.50135254 112.22282227 -15.25 111.625 C-21.52509398 106.67776594 -27.86050521 101.83921791 -34.3125 97.125 C-42.05604353 91.4604374 -49.70659065 85.68344308 -57.328125 79.85595703 C-65.18082843 73.85294257 -73.08046078 67.91445079 -81 62 C-79.62803826 58.77582501 -78.23080266 57.1326783 -75.38671875 55.109375 C-74.64421875 54.573125 -73.90171875 54.036875 -73.13671875 53.484375 C-72.32847656 52.91203125 -71.52023437 52.3396875 -70.6875 51.75 C-68.95061278 50.49646672 -67.21498032 49.2411934 -65.48046875 47.984375 C-64.57731934 47.33146484 -63.67416992 46.67855469 -62.74365234 46.00585938 C-58.27616493 42.7397198 -53.88995699 39.36921739 -49.5 36 C-40.55124884 29.15204532 -31.51258509 22.43717431 -22.421875 15.77929688 C-19.81720232 13.86570267 -17.22045236 11.94170423 -14.625 10.015625 C-13.74666504 9.36480957 -12.86833008 8.71399414 -11.96337891 8.04345703 C-10.26646485 6.78573673 -8.57078113 5.52635438 -6.87646484 4.26513672 C-6.12059082 3.70584473 -5.3647168 3.14655273 -4.5859375 2.5703125 C-3.9161084 2.07289551 -3.2462793 1.57547852 -2.55615234 1.06298828 C-1 0 -1 0 0 0 Z " fill="#69227A" transform="translate(338,195)"/>
<path d="M0 0 C5.3051183 3.97883873 10.50710948 7.98459706 15.625 12.1875 C20.77965674 16.39672432 25.95311785 20.57772678 31.1875 24.6875 C32.03006348 25.34999756 32.03006348 25.34999756 32.88964844 26.02587891 C35.82538152 28.32550825 38.78065891 30.59533694 41.76171875 32.8359375 C42.36798096 33.29395752 42.97424316 33.75197754 43.59887695 34.22387695 C44.75852347 35.09787583 45.92226978 35.96646874 47.09057617 36.82885742 C48.43018769 37.83928686 49.72076782 38.91414012 51 40 C51 40.66 51 41.32 51 42 C49.0360829 43.68467264 47.06191296 45.25509766 45 46.8125 C43.70732004 47.8072784 42.41569367 48.80342705 41.125 49.80078125 C40.44695312 50.32365723 39.76890625 50.8465332 39.0703125 51.38525391 C35.67027241 54.0371248 32.33694733 56.76947437 29 59.5 C23.84315468 63.70606173 18.66528587 67.88233984 13.4375 72 C12.89029297 72.43248047 12.34308594 72.86496094 11.77929688 73.31054688 C7.92532987 76.33428353 3.99609542 79.14564613 0 82 C0 54.94 0 27.88 0 0 Z " fill="#69237B" transform="translate(133,215)"/>
</svg>
